<?xml version="1.0" encoding="UTF-8"?>
<svg id="Calque_2" data-name="Calque 2" xmlns="http://www.w3.org/2000/svg" viewBox="0 0 505.84 484.13">
  <defs>
    <style>
      .cls-1, .cls-2 {
        stroke-width: 4px;
      }

      .cls-1, .cls-2, .cls-3 {
        fill: none;
        stroke-miterlimit: 10;
      }

      .cls-1, .cls-3 {
        stroke: #070503;
        stroke-linecap: round;
      }

      .cls-2 {
        stroke: #151412;
      }

      .cls-4 {
        fill: #fcf7e7;
      }

      .cls-5 {
        fill: #966f39;
      }

      .cls-6 {
        fill: #edb15c;
      }

      .cls-7 {
        fill: #151412;
      }

      .cls-8 {
        fill: #fdfdfd;
      }

      .cls-9 {
        fill: #dfddd3;
      }

      .cls-10 {
        fill: #cbc9c0;
      }

      .cls-11 {
        fill: #c08e4a;
      }

      .cls-12 {
        fill: #282723;
      }

      .cls-13 {
        fill: #ed546d;
      }

      .cls-14 {
        fill: #dea556;
      }

      .cls-15 {
        fill: #1c1c1b;
      }

      .cls-3 {
        stroke-width: 3px;
      }

      .cls-16 {
        fill: #fcfaee;
      }
    </style>
  </defs>
  <g id="Calque_1-2" data-name="Calque 1">
    <path class="cls-7" d="M344.11,315.35c-6.22-19.64-29.77-31.78-52.74-27.36,.07,1.09,.14,2.17,.21,3.26l1.12,.24c13.52-.95,26.32,.98,37.03,10.11,6.97,5.93,11.52,13.27,11.61,22.78,1.35,10.22-1.5,19.76-4.66,29.27-4.15,12.5-9.8,24.35-15.46,36.2-1.93,4.05-4.2,8-5.6,12.24-5.32,16.05-15.48,28.86-26.56,41.19-5.8,6.46-13.31,10.44-20.19,15.35-1.67,1.19-3.58,.34-5.34,.69-.36,.67-.72,1.34-1.07,2.01,.13,1.01,.26,2.03,.39,3.04,0,.01,.01,.02,.02,.04,2.27-.58,4.57-1.08,6.83-1.7,20.38-11.2,35.37-27.8,45.47-48.52,5.29-10.85,9.77-22.13,14.92-33.09,4.59-9.77,8.72-19.73,11.97-30.02,3.7-11.73,5.89-23.63,2.05-35.75Z"/>
    <path class="cls-7" d="M307.37,106.88c-1.04-1.3-2.49-.68-3.7-.28-3.3,1.1-6.64,2.15-9.82,3.55-22.54,10-44.71,38.31-32.87,76.33,3.35,10.77,7.58,21.36,8.98,32.62,1.05,8.49,2.94,17.54-3.63,24.83-24.05,26.67-65,23.82-83.08-6.19-2.81-4.67-5.56-9.36-7.85-14.32-.22-.49-.44-.98-.67-1.48,.11-.38,.23-.76,.34-1.14-1.52-2.48-2.51-5.31-2.97-8.28-.05-.32-.08-.65-.08-.97-1.12,.29-2.23,.59-3.35,.88-.02,1.64-.04,3.28-.05,4.92,1.59,1.92,1.4,4.48,2.36,6.62,4.33,8.42,8.25,17.12,14.49,24.37,9.56,11.11,21.8,17.14,36.41,18.3,14.59,1.16,27.46-3.37,39.38-11.54,4.65-3.19,7.11-8.22,11.2-11.81l1.27-2.85c.19-.46,.38-.91,.57-1.37,.21-1.55,.42-3.09,.63-4.64l.37-1.34c-.11-2.89-.21-5.77-.32-8.66-.03-.35-.07-.7-.1-1.04-1.41-13.59-6.67-26.19-10.01-39.29-.89-3.51-1.41-7.11-2.1-10.66-2.72-10.3-.59-19.94,3.8-29.36,3.47-7.43,7.69-14.25,13.99-19.62,3.97-4.78,9.26-7.66,14.83-10.07,1.1-.48,2.52-1.65,3.58-.28,.78,1.01-.35,2.15-.84,3.13-.73,1.44-1.64,2.8-2.47,4.2-1.47,2.98-1.98,6.38-4.02,9.1-1.36,1.41-.99,3.22-1.12,4.91,1.26,.33,2.52,.66,3.77,.99,2.33-5.57,4.48-11.23,7.06-16.69,1.47-3.1,3.65-5.86,5.52-8.77,.84-1.3,1.67-2.65,.51-4.1Z"/>
    <path class="cls-7" d="M109.58,466.51c-20.21-11.59-37.39-26.75-52.78-44.15-5.3-6-10.56-11.9-14.13-19.12-4.2-3.61-6.45-8.63-9-13.3-7.48-13.68-13.36-28.06-17.23-43.21-1.29-5.04-2.56-10.09-2.94-15.3-1.01-.43-.91-1.23-.72-2.08-.07-.32-.05-.62,.08-.92,.04-.35,.08-.7,.12-1.05-.17-.99-.35-1.98-.52-2.97-1.13-7.92-2.54-15.92-1.7-23.87,1.01-9.57,1.38-19.24,3.87-28.66,2.98-11.26,5.58-22.62,11.85-32.67,.11-1.87,.59-3.58,2.14-4.81,.46-.95,.92-1.91,1.38-2.86-1.16-.39-2.32-.78-3.48-1.17-.57,1.16-1.25,2.3-2.08,3.41-.9,1.21-1.9,2.33-2.92,3.44-.06,1.25-.33,2.5-.94,3.79-6.54,13.89-10.33,28.53-12.09,43.78-2.18,18.93-1.67,37.77,2.45,56.32,7.8,35.04,24.74,65.33,49.38,91.32,14.04,14.8,29.25,28.17,47.52,37.66,1.31-.84,1.86-2.05,1.76-3.57Z"/>
    <path class="cls-7" d="M421.83,106.8c10.4-4,20.06-9.48,29.79-14.83,1.38-.76,2.77-2.32,4.51-1.07,1.74,1.26,.65,3.09,.37,4.62-.88,4.97-3.86,8.97-7.03,13.6,12.71,1.11,23.94-1.49,34.51-7.19,6.2-3.34,11.6-7.72,16.21-13.07,1.2-1.39,2.18-4.12,4.59-2.53,2.14,1.41,.49,3.61-.04,5.42-2.97,10.2-10.57,16.98-17.97,23.8-7.79,7.18-17.05,11.9-27.18,14.93-1.3-.8-1.06-2.17-1.27-3.38,0-.25,.05-.49,.14-.72,5.46-1.34,10.28-4.06,15.02-6.96,7.89-3.52,14.22-8.91,19.1-16.02,.5-.28,1-.56,1.5-.84-.26-.33-.47-.89-.78-.94-1.48-.25-2.28,.65-2.8,1.9-3.12,1.87-6.25,3.67-9.59,5.18-7.85,3.55-16.18,4.59-24.6,5.37-3.62-.44-7.25-.78-10.86-1.33-4.15-.63-5.06-2.36-1.51-5.28,3.69-1.7,5.24-4.83,6.51-9.52-5.21,2.63-9.47,4.77-13.72,6.92-3.74,1.86-7.48,3.73-11.22,5.59-3.65,1.33-7.3,2.67-10.96,4-1.84-1.63-4.92-2.05-5.15-5.26,1.56-1.57,3.11-3.14,4.67-4.71,4.81-2.05,8.5-5.61,13.53-8.82-11.1-2.99-20.8-2.17-30.32,1.57-.93,.43-1.86,.85-2.78,1.28-2.33-.41-3.76,1.92-5.95,1.94-2.59-.78-5.17-1.57-7.76-2.35,.31-.46,.62-.91,.92-1.37,2.74-1.2,4.53-3.58,6.71-5.47,5.56-2.9,9.91-7.4,15.86-11.52-1.6,0-2.18,0-2.76,0-17.34,.06-33.13,5.78-48.45,13.25-11.76,5.73-22.57,12.68-30.38,23.49-7.59,10.51-13.87,21.77-19.18,33.58-1.21,2.7-2.7,5.34-2.95,8.39l-.77,1.95c-.09,.33-.18,.66-.27,.99-.38,1.02-.77,2.04-1.15,3.06-.22,.5-.44,.99-.66,1.49-.22,1.82-.44,3.65-.67,5.47-1.37,0-2.75,0-4.12,0,1.19-11.97,5.86-22.75,11.55-33.12,7.24-13.21,13.72-27.16,26.04-36.6,20.92-16.01,44.55-25.44,71.03-27.04,3.11-.19,6.28,.48,9.42,.74,1.39,.11,2.77,.42,3.23,1.86,.52,1.6-.79,2.41-1.91,3.12-3.55,2.22-7.05,4.53-10.73,6.52-2.34,1.26-3.73,3.41-5.55,5.62,4.53-.84,9.05-1.75,13.59-2.49,7.51-1.22,14.93-.63,22.13,1.81,1.77,.6,4.38,.83,4.51,3.28,.11,2.18-2.34,2.48-3.83,3.42-3.9,2.43-8.32,4.03-11.71,7.27-.62,.45-2.19,.65-1.79,1.22,.65,.92,2,.69,2.95-.21Z"/>
    <path class="cls-15" d="M291.38,288c.07,1.09,.14,2.17,.21,3.26-.34,.27-.68,.55-1.02,.82-2.71,.66-5.59,.71-8.07,2.21-3.88,.82-7.68,1.87-11.06,4.05-1.96,.82-3.97,1.56-5.87,2.5-1.45,.71-2.49,.54-3.39-.8-.9-1.34-.03-2.16,.83-2.95,11.2-10.25,23.55-18.11,39.33-18.76,.5-.01,1-.03,1.49-.04,12.78-.98,23.77,3.51,33.74,11.1,7.53,7.31,12.45,16.22,15.92,26.02l.19,1c.23,.69,.45,1.38,.68,2.07,.55,5.54,1.53,10.89,.59,16.69-.57,3.49-1.95,7.33-.97,11.12-.11,.72-.23,1.44-.34,2.16-.31,1.3-.63,2.6-.94,3.89-2.44,5.98-4.87,11.95-7.3,17.93-.39,.17-.82,.34-.27,.82,.17-.2,.33-.4,.5-.59,10.42-7.87,15.72-18.83,18.8-31.14,.1-.57,.19-1.13,.29-1.7l.58-1.29c-.08-5.44,2.99-10.39,2.43-15.9,1.01-2.61,.86-5.33,.75-8.05,.27-1.76,.55-3.52,.82-5.28,.03-1.46,.06-2.92,.1-4.38,.13-10.32-5.14-18.23-11.39-25.75-9.94-11.97-22.88-18.84-37.76-22.5-.21-.08-.43-.12-.66-.09-6.24-.57-12.47-1.21-18.75-.87-.38,.07-.76,.14-1.13,.22-1.74,.3-3.48,.65-5.23,.89-1.2,.16-2.41-.07-2.63-1.47-.21-1.28,.66-2.16,1.84-2.47,.92-.24,1.91-.2,2.88-.28,.25,.03,.49-.01,.72-.12,1.46-.27,2.91-.71,4.38-.78,27.67-1.39,49.21,9.57,65.12,32.12,4.97,7.05,7.93,15.05,11.3,23.37,.53-2.38,.92-4.12,1.32-5.87,.12-.23,.16-.47,.14-.73-.08-1.66-.15-3.5,1.82-4.02,2.14-.55,2.63,1.35,3.27,2.82,1.02,2.38,2.03,4.76,3.04,7.14,.95,4.68,2.67,9.21,2.82,14.05h-3.83c-1.4-4.17-1.35-8.77-3.83-13.15-.76,7.15-1.44,13.74-2.18,20.31-.2,1.75-.06,4.19-2.72,3.86-2.74-.34-1.67-2.82-1.67-4.46,0-5.5-.64-10.88-2.44-16.2-.89,9.77-2.2,19.44-4.32,28.96-3.22,14.5-9.86,27.14-21.44,36.79-2.41,2.01-5.13,3.67-7.77,5.39-1.24,.81-2.62,1.67-4.02,.19-1.27-1.34-.16-2.5,.39-3.62,3.05-6.09,6.7-11.93,9.14-18.25,6.15-15.93,8.08-32.09,.82-48.36-10.64-23.85-35.06-33.78-59.26-23.98-2.11,.86-4.16,1.87-7.07,3.19,4.4,.9,7.68-1.18,11.12-1.1Z"/>
    <path class="cls-15" d="M352.61,230.38c.31,.1,.61,.19,.92,.29-.21,1.25-.42,2.51-.62,3.76-1.14-.27-2.28-.54-3.42-.81-1.46-1.35-4.62-.46-4.84-3.28-.2-2.62,2.65-2.93,4.03-4.38,.55-.57,1.23-1.02,1.86-1.52,1.61-.84,3.23-1.7,4.84-2.53,14.72-7.61,30.04-10.44,46.29-5.79,.24,.18,.51,.29,.81,.31,8.68,1.6,16.69,5.28,25.01,7.99,4.18,2.12,8.6,3.29,13.85,3.82-4.24-7.84-10.83-12.53-16.61-17.93-10.84-10.13-23.83-14.77-38.59-14.72-17.27,.05-32.97,5.38-47.68,14.08-4.46,3.08-9.04,5.99-13.03,9.71-1.52,.94-2.82,2.79-4.93,1.12-.87-3.64,1.83-6.51,2.13-9.9,3.74-7.37,8.07-14.35,14.05-20.17,.28-.27,.56-.53,.84-.8,13.99-10.76,30.01-13.83,47.2-12.43,.34,.05,.69,.09,1.03,.14,2.25,.03,4.51,.06,6.76,.09,.32,.05,.64,.09,.96,.14,9.96,2.46,19.89,5,29.04,9.87,16.61,8.86,30.33,20.7,39.1,37.68-.78,1.46-2.23,1.27-3.54,1.43-14.08-23.28-34.45-37.83-60.99-43.58-12.33-2.67-24.72-2.72-37.08,.27-9.5,2.29-17.56,6.88-24.01,14.25-.23,.06-.37,.22-.42,.45-2.79,3.83-5.91,7.46-7.52,12.03-.39,.46-.76,.99-.11,1.45,.15,.1,.68-.34,1.04-.53,12.18-8.23,24.93-15.1,39.58-18.04,31.02-6.22,61.26,6.95,77.48,34.02,.43,.71,.95,1.4,1.21,2.17,.48,1.47,2.12,2.87,.58,4.56-1.28,1.41-2.74,.52-4.17,.19-8.35-1.97-16.36-4.99-24.42-7.87-11.89-4.25-23.8-8.59-36.77-7.83-.71-.83-1.36-.71-1.95,.14-10.21,1.11-19.45,4.94-28.21,10.11-.47,.32-1.3,.61-1.33,.96-.07,1.05,.86,1.03,1.63,1.07Z"/>
    <path class="cls-15" d="M292.9,171.42c1.37,0,2.75,0,4.12,0-.1,2.01-.2,4.03-.3,6.04-.05,4.29-.1,8.59-.15,12.88,.11,.96,.21,1.93,.32,2.89,1.22,5.3,.87,10.92,3.28,16.85,2.07-10.51,7.11-18.9,11.24-27.67,2.54-3.22,4.95-6.53,7.63-9.63,12.3-14.22,26.95-24.83,45.52-29.34,.25,0,.49-.05,.71-.17,.97-.78,2.12-.86,3.3-.83,.23,.01,.45-.03,.67-.13,1.1-.32,2.17-.72,3.29-.96,10.54-2.24,21.35-2.27,31.97-3.83,.71,.06,1.41,.12,2.12,.18,1.12,1.08,2.09,.89,2.92-.36,1.33,.03,2.66,.06,3.99,.09,.93-.13,1.87-.26,2.8-.38,14.31-2.02,28.42-4.83,42-9.95,.21,1.21-.03,2.58,1.27,3.38-14.05,6.64-29.2,8.86-45.14,10.92,2.12,1.26,3.58,2.13,5.05,3-.02,1.4-.05,2.8-.07,4.2-.99-.33-1.98-.66-2.97-.99-2.33-.98-4.66-1.95-6.99-2.93-4.38-2.38-9.13-2.47-13.92-2.25-.41,.02-.82,.04-1.22,.06-3.46,.97-7.02,1-10.57,1.02-.36,.07-.73,.15-1.09,.22-1.67,.79-3.44,.68-5.21,.65-.22-.02-.43,.02-.64,.1-3.1,.64-6.19,1.28-9.29,1.92-.31-.01-.59,.08-.84,.27-8.7,2.84-17.16,6.17-24.84,11.31-19.53,13.07-31.85,31.23-38.19,53.66-.1,.21-.15,.42-.14,.65-.61,3.44-1.22,6.87-1.84,10.31l-.12,.32c-2.21,1.64-3.27,.32-3.87-1.64-.8-2.62-1.43-5.29-2.14-7.94,0-.28-.07-.53-.22-.77-1.64-6.07-3.28-12.14-4.93-18.2,.04-.65,.08-1.3,.12-1.95,.01-.32-.07-.61-.26-.87-1.27-7.13-4.02-13.92-4.7-21.18-.8-12.01,.06-23.78,4.94-34.99l3.77,.99c-5.59,19.59-5.99,24.63-3.08,39.18,2.05-.9,.9-2.98,1.7-4.2Z"/>
    <path class="cls-7" d="M419.43,148.63c.02-1.4,.05-2.8,.07-4.2,10.63,5.37,20.74,11.45,29.9,19.2,11.83,10.01,22.47,20.9,29.14,35.07,10.2,21.68,10.59,44.23,5.43,67.2-2.76,12.25-7.61,23.67-13.89,34.5-.74,1.27-1.18,3.56-3.5,2.5-1.75-.8-1.37-2.52-.94-3.96,7.56-25.19,4.35-49.23-7.57-72.38,1.31-.17,2.76,.03,3.54-1.43,3.85,5.59,6.1,11.87,8.07,18.29-.16,.61,.07,1,.68,1.17,0,0-.06-.05-.06-.05,.83,3.93,1.66,7.86,2.49,11.79,1.12,8.57,1.03,17.19,1.19,25.89,3.64-8.96,6.84-18.03,7.52-27.8,.11-.67,.21-1.34,.32-2,1.21-2.93,.78-5.97,.66-9,0-.67,.02-1.33,.03-2,0-.66,0-1.33,.01-1.99,0-1.33-.02-2.67-.02-4,.58-9.92-1.8-19.36-5-28.6-5.51-15.89-16.79-27.61-29.03-38.33-7-6.13-14.44-11.94-22.97-16.02-2.01-1.28-4.03-2.57-6.04-3.85Z"/>
    <path class="cls-7" d="M352.9,234.43c.21-1.25,.42-2.51,.62-3.76,26.94,12.93,46.24,32.54,51.39,62.83,4.16,24.45-3.59,46.57-17.08,66.86-2.11,3.18-4.58,6.11-6.92,9.13-.91,1.18-1.96,2.74-3.63,1.72-1.88-1.16-.97-2.82-.1-4.31,4.47-7.68,7.34-15.92,8.93-24.66,1.45-7.93,1.19-15.88,.52-23.85h3.83s.36-.12,.36-.12c.27,4.36,.54,8.71,.82,13.07-.61,5.39-1.22,10.78-1.98,17.49,4.24-7.88,7.71-14.68,8.82-22.45,.13-.53,.26-1.05,.39-1.58,.16-.48,.33-.96,.49-1.44,.6-2.62,1.42-5.22,1.23-7.96,.73-.57,.81-1.3,.52-2.12,.04-.63,.09-1.26,.13-1.89,.41-1.66,.5-3.33,.11-5.01,.01-.98,.02-1.97,.04-2.95,.06-.82,.23-1.66,.16-2.47-2.57-30.17-20.28-49.71-45.1-64.27-1.17-.76-2.35-1.51-3.52-2.27Z"/>
    <path class="cls-12" d="M352.61,230.38c-.77-.04-1.7-.02-1.63-1.07,.02-.35,.86-.64,1.33-.96-.45,.76-.07,1.39,.3,2.03Z"/>
    <path class="cls-12" d="M380.51,218.24c.59-.85,1.24-.97,1.95-.14-.65,.05-1.3,.09-1.95,.14Z"/>
    <path class="cls-12" d="M335.57,197.95c.05-.24,.18-.39,.42-.45,0,0-.06,.36-.06,.36l-.35,.09Z"/>
    <path class="cls-15" d="M163.66,482.7c.05,0,.1,0,.16,0-.15-.75-.2-1.52-.05-2.33-.5-2.49-2.57-1.87-4.2-2.11-16,1.5-30.8-2.7-45.07-9.44-1.64-.77-3.27-1.54-4.91-2.3,.09,1.53-.46,2.74-1.76,3.57,13.91,7.9,28.83,12.54,44.83,12.7,1.96,.02,3.6,.18,4.94,.69,1.04,0,2.07,.07,3.09,.15,.76-.58,1.75-.94,2.97-.93Z"/>
    <path class="cls-6" d="M438.24,181.67c-.03-2.24-3.68-1.31-4.75-3.23-.08,.14-.16,.28-.23,.41,.08-.14,.15-.28,.23-.42-.11-.93-.1-2.79-.83-2.46-4.61,2.07-5.56-1.46-7.1-4.24-.99-1.78-3.01-2.76-4.54-2.44-3.82,.8-3.76-1.89-4.47-4.08-.65-.49-1.3-.97-1.95-1.46-8.65-2.26-17.25-4.86-26.26-5.18-15.66-.54-30.17,3.47-43.64,11.41-.99,.58-2.04,1.06-3.07,1.59-.51,.76-1.21,1.06-2.11,.87-.11,.23-.22,.46-.33,.69-.71-.62,.04-.55,.32-.7,.55-.48,1.1-.96,1.65-1.45,9.14-9.34,20.71-13.92,33.16-16.49,11.93-2.46,23.67-.95,35.18,2.75,.33-.93,.66-1.86,.99-2.8h0c-2.22-.33-2.52-1.76-1.21-3.1,2.25-2.3,1.31-4.4,.19-6.63-4.38-2.38-9.13-2.47-13.92-2.25-.41,.02-.82,.04-1.22,.06-3.46,.97-7.02,1-10.57,1.02-.36,.08-.73,.15-1.09,.22-1.67,.79-3.44,.68-5.21,.65l-.3,.26s-.34-.16-.34-.16c-3.1,.64-6.19,1.28-9.29,1.92-.28,.09-.56,.18-.84,.27-8.7,2.84-17.16,6.17-24.84,11.31-19.53,13.07-31.85,31.23-38.19,53.66l.14,.35s-.28,.3-.28,.3c-.61,3.44-1.22,6.87-1.84,10.31l.15,.21s-.27,.11-.27,.11c-2.21,1.64-3.27,.32-3.87-1.64-.8-2.62-1.43-5.29-2.14-7.94-.35-.2-.42-.45-.22-.77-1.64-6.07-3.28-12.14-4.93-18.2-3.79,.2-6.52-3.05-10.04-3.26-3.28-.19-.57-3.81-3.34-4.29,.22,6.6-.09,13.15,3.11,19.11,1.79,3.34,2.15,7.29,4.64,10.29,.2,.24,.42,.83,.37,.86-5.39,3.47,0,7.64-.72,11.43-.8,4.23,.93,8.4,1.08,12.39,.13,3.45-1.47,7.94-3.07,11.26-.98,2.04-1.09,3.76-1.23,5.59-.31,4.05-5.11,5.95-4.68,10.26,17.34-12.42,35.8-14.35,55.27-5.68,4.34,1.93,8.63,4.15,11.72,8.02,.21,.16,.42,.31,.63,.47-.63,.42-.67,.02-.63-.46-1.06,.31-1.92-.17-2.82-.63-28.36-14.61-55.44-8.8-75.59,16.11-3.86,4.78-7.64,9.6-11.01,15.9-.84-2.8,.26-4.32,.89-5.73,3.44-7.66,8.24-14.41,13.97-20.53,1.22-1.31,2.93-2.25,3.46-4.15-7.09-.43-11.59,4.61-16.85,8.03-.33,.68-.67,.68-1,0-1.3,.04-1.97,.7-2,2,.72,.13,1.45,.27,2.17,.4-.08,.13-.14,.34-.25,.38-.85,.29-1.46-.07-1.92-.77-5,.62-10.01,1.12-15.07,.9-.28-.01-.61,1.37-.92,2.1,.29,.29,.58,.58,.86,.87-.29-.29-.58-.58-.87-.86-4.09,1.11-8.36-1.26-12.61,1.48-2.58,1.66-4.67-1.82-6.54-3.88-1.29,1.1-1.28,3.19-3.14,3.56,4.46,1.77,8.98,3.44,12.9,6.32,5.75,4.23,7.39,11.73,3.98,18.28-3.41,6.55-10.82,10.16-16.94,8.25-6.99-2.18-10.19-8.22-8.17-15.87,.33,2.37,.24,4.63,.99,6.56,1.72,4.39,5.15,6.98,9.93,7.09,4.61,.1,9.49-3.91,11.08-8.79,1.5-4.59,.58-8.5-3.47-11.48-5.55-4.08-11.96-6.01-18.63-6.38-27.96-1.56-50.51-25.27-55.36-52.72-.37-2.11-.47-4.27-.69-6.41v-8.75c.13-.02,.25-.03,.38-.05,.37,2.93,.74,5.86,1.12,8.8,4.66,22.19,16.25,39.22,36.94,49.36,3.83,1.88,7.8,3.68,12.27,3.55-2.39-4.84-4.1-10.44-11-10.48-2.71-.02-.68-2.38-1.84-3.33-3.84-3.12-6.52-7.59-11.01-9.91-3.8-1.96-3.13-6.16-5.05-9.04-.73-1.09-.13-3.28-2.65-1.96-.72,.37-1.29-.62-1.23-1.16,.46-4.26-3.04-7.78-2.17-12.09,0-.64,0-1.29,0-1.93-2.55-2.45-4.24-5.04-1.62-8.49,.88-1.16,.91-2.7,.46-3.83-1.75-4.43,.69-7.18,3.54-9.85-.41-8.4-1.9-16.65-3.4-24.9l-.28-.31,.13-.37c-7.78-24.34-16.18-48.47-25.16-72.39-10.86-28.91-33.24-43.21-64.16-41.86-16.68,.73-28.87,9.59-34.6,25.4-1.02,2.83-2.44,4.07-5.53,4.62-12.88,2.29-21.09,10.74-28.23,22.09,7.73-.37,14.51-1.49,21.1,.73,.3-.22,.55-.17,.76,.17,6.8,.54,12.49,3.58,16.71,8.7,9.92,12.02,14.81,26.38,18.27,41.32l.26,.32-.16,.35c2.41,9-1.03,16.63-5.74,23.89-4.75,7.32-11.42,12.97-17.18,19.41-2.2,2.47-4.77,4.64-6.31,7.65,1.82,3.1-.04,7.07,2.36,10.04-4.46,2.27,2.88,6.25-1.24,8.57,.99,1.24,3.04,1.82,2.6,3.98-1.88,1.05-1.11-1.74-2.85-1.4,.91,2.26-1.59,6.03,3.46,6.19,6.08-5.46,10-12.72,15.56-18.63,4.65-4.94,8.86-10.29,13.27-15.46,6.4-7.81,8.25-17.05,8.38-26.84,1.29,10.3,.12,19.94-7.27,27.97-7.85,10.31-16.15,20.32-23.44,31.01-13.1,19.22-19.39,40.74-18.52,64.03,.71,18.98,7.77,36.05,17.3,52.26-2.07-11.91-2.93-23.8,.59-35.46,6.87-22.72,19.92-39.75,44.25-45.45,8.91-2.09,16.58-.36,22.21,8.05,5.63,8.39,16.51,10.73,23.58,5.9,5.19-3.54,8.14-12.21,6.55-19.24-.29-1.3-.64-2.58-.97-3.87-1.42-.63-2.51-1.57-2.96-3.12-1.91-.52-3.82-1.04-5.73-1.56-1.99,.47-3.99,.94-5.98,1.41-.34,.33-.67,.66-1,.99-.34,.33-.68,.66-1.02,.99,.17,1.84-.36,3.49-1.71,5.93-.47-2.91,.25-4.53,1.66-5.98,.33-.34,.65-.68,.98-1.02,.33-.33,.66-.67,.98-1.01,1.38-2.42,3.54-2.94,6.09-2.53,2.26,.25,4.54,.43,6.03,2.52,1.68,.3,2.63,1.35,3.04,2.96,4.15,5.91,3.76,14.7-.96,21.4-4.2,5.97-11.15,8.44-18.55,6.29-4.95-1.43-9.31-3.66-12.27-8.39-4.23-6.75-10.68-8.48-18.27-6.8-18.46,4.07-30.16,16.03-37.85,32.54-5.04,10.83-6.39,22.29-4.89,34.95,2.47-6.86,3.78-13.35,6.87-19.18,2.66-5.02,5.51-9.87,9.59-13.91,12.64-12.53,32.02-8.71,38.88,7.75,1.01,2.43,1.91,5.03,2.21,7.63,1.81,15.74-8.08,21.47-21.06,20.33-6.15-.54-12.03-2.41-17.42-5.63-3.48-2.08-6.68-1.29-8.39,2.31-3.62,7.63-7.78,15.73-4.2,24.13,4.78,11.21,13.21,19.29,25.76,21.33,5.64,.91,10.34-2.01,13.53-6.81,2.94-4.42,2.16-8.93-.31-13.21-1.76-3.06-4.46-4.88-8.2-4.73-3.6,.15-6.53,1.27-7.7,5.08-.07,1.18,.59,2.43-.34,3.57-1.67-.77-1.57-2.16-1.34-3.59,2.23-7.63,10.47-10.32,16.92-5.54,5.87,4.35,8.07,12,5.36,18.62-3.02,7.37-11.25,12.36-18.66,11.33-13.09-1.83-22.31-9.53-28.3-20.59-4.13-7.62-8.97-14.69-13.56-21.97-4.8-7.6-8.23-15.86-11.84-24.05-1.8,3.6-.42,7.51-1.12,11.22,0,.66,.01,1.33,.02,1.99,5.03,1.7,7.31,8.03,3.96,10.98v2.04c1.6-.61,3.64-2.19,4.62,.11,.64,1.51,3.29,3.8-.14,5.59-.43,.23-.31,1.5-.45,2.29,.81,.43,.95,1.18,.99,1.99,3.22,0,5.36,2.62,4.57,5.66-.48,1.86,1.66,1.7,2.31,3.05,2.09,4.36,2.71,9.22,5.07,13.41,2.06,3.67,6.09,6.21,6.35,10.93,4.73-.38,3.09,2.25,2.49,4.78-.22,.92,1.69,1.45,2.37,2.27,4.06,4.89,9.65,8.34,12.93,13.98,1.82,3.13,6.17,3.7,7.64,7.55,.44,1.14,2.22,2.24,3,3.72,.38,.72,1.18,2,1.36,1.93,4.73-1.88,7.09,3.08,10.9,3.7,0,0,0,0,0,0,1.07,2.15-2.96,.29-1.92,2.43,1.61-.8,.62,3.46,3.88,1.49,3.11-1.88,8.89,3.37,8.85,7.32-.01,1.38,.11,1.72,1.42,1.6,2.2-.19,5.46,1.74,4.89-3.62,1.74,2.47-1.08,6.97,4.29,5.98,.91-.17,2.32,2.36,3.68,3.1,.07-.16,.11-.22,.07,.04,0,0,0,0,0,0,0,0,0,0,0,0,.31-.57,.55-.45,.54-.41-.05,.18-.11,.37-.19,.54,4.75,1.81,9.45,3.55,13.67,6.41,2.22,1.51,4.3,2.78,7.23,1.51,1.64-.71,4.27,3.4,5.18-1.2,2.39,1.61,2.96,8.19,7.2,2.29,2.11,2.59,6.23,.37,8.16,3.41,1.63,.24,3.69-.38,4.2,2.11,1.64,.5,2.99,1.39,4.21,2.43,4.07,.13,8.14,.38,12.2,.64,1.1-1.2,2.73-1.93,4.73-1.58,3.33,.58,6.75,.42,10.15,.25,1.86-2.77,1.5,0,3.5-2.68,5,0,7,0,10-1,4.44-1.48,5.81-1.6,10-2,1.43,.24,6.19,2.5,3-1,2.19,4.5,1.02,1.51,1,2,1.19,1.7,.37,.16,1.8,1.65,2.29-.36,4.56-.95,6.82-1.52,4.62-1.17,9.2-2.29,13.46-4.49,4.37-2.27,8.35-5.2,12.96-6.99,.1-.04,.2-.07,.3-.11,.55-1.34,.97-2.74,1.09-4.3,.12-1.58,2.28-.22,3.5-.31,.36-.67,.72-1.34,1.07-2.01,1.7-2.23,2.46-4.95,5.59-6.36,2.74-1.23,4.98-4.04,2.04-8.24,3.33,1.28,1.65,3.77,3.09,5.15,5.62-2.5,7.06-8.97,11.92-12.68,4.89-3.72,8.74-9.71,11.36-15.84h0c1.75-3.55,1.14-7.96,5.29-10.79,1.94-1.33,5.5-3.67,3.89-7.66-.1-.24,.06-.83,.24-.9,4.08-1.54,2.95-5.82,4.57-8.64h.01c.68-4.5,1.5-8.97,6.68-10.48,1.51-.44,1.85-1.3,1.71-2.49-.23-1.93-1.44-3.95,2.4-3.57,1.55,.15,2.38-2.53,.4-3.3-3.94-1.54-2.05-2.54,0-3.74,.85-.5,1.79-.87,2.7-1.26,.99-.42,2.69-.25,2.39-1.89-.29-1.57-1.65-1.97-4.14-.53,6.96-7.43,7.85-15.8,8.91-23.8,.31-2.32,1.8-3.86,1.87-5.99-4.04,1.56-7.92,2.08-11.07-1.8-.42-.61-.83-1.21-1.25-1.81-.69-.64-.81-1.41-.57-2.27,.85,.31,.99,1.07,1.12,1.83,.46,.57,.91,1.14,1.38,1.71,2.16,.38,4.1,2,6.48,1.14-.74-7.34-4.8-13.06-9.06-18.7-1.73,2.11-3.39,.1-4.91-.27-13.86-3.31-27.65-3.72-41.09,1.54-4.59,1.8-8.87,4.6-12.95,7.42-5.98,4.14-12.5,5.94-19.71,5.94-.16-.93,.69-1.1,1.08-1.1,8.57-.1,15.01-4.87,21.35-9.75,6.96-5.37,14.69-8.97,23.28-10.79-2.09-1.44-2.16-3.57-1.97-5.79l-3.06,.67c-10.51,3.5-19.51,9.89-29.09,15.19-5.31,2.94-10.88,5.38-17.19,5.59,15.74-5.55,27.1-18.56,42.51-24.56-1-.28-1.76-1.22-3.1-.34-2.32,1.53-3.99,.29-5.19-1.84-1.96,.82-3.97,1.56-5.87,2.5-1.45,.71-2.49,.54-3.39-.8-.9-1.34-.03-2.16,.83-2.95,11.2-10.25,23.55-18.11,39.33-18.76,.49-.46,.98-.47,1.49-.04,12.79-.98,23.77,3.51,33.74,11.1,3.41-2.49,5.11,1.08,7.07,2.41,2.02,1.36,3.32,3.86,3.05,6.91,1.46-1.18,.12-3.01,1.97-3.89,.37,4.61,2.27,8.12,6.85,9.58,.24-.53,.48-1.06,.73-1.6l.59,.39c-.44,.4-.88,.81-1.31,1.21-1.03,3.2,.86,5.15,3,7h0c3.04-.17,5.74,2.6,8.94,1,.27-1.76,.55-3.52,.82-5.28-.53-1.47-.46-2.93,.1-4.38,.13-10.32-5.14-18.23-11.39-25.75-9.94-11.97-22.88-18.84-37.76-22.5l-.34,.16s-.31-.25-.31-.25c-6.24-.57-12.47-1.21-18.75-.87-.38,.07-.76,.15-1.14,.22-1.74,.3-3.48,.65-5.22,.89-1.2,.16-2.41-.07-2.63-1.47-.21-1.28,.66-2.16,1.84-2.47,.92-.24,1.91-.2,2.88-.28l.34-.29s.38,.17,.38,.17c1.46-.27,2.91-.71,4.38-.78,27.67-1.39,49.21,9.57,65.12,32.12,4.97,7.05,7.93,15.05,11.3,23.37,.53-2.38,.92-4.12,1.32-5.87l-.14-.39s.29-.34,.29-.34c-.08-1.66-.15-3.5,1.82-4.02,2.14-.55,2.63,1.35,3.27,2.82,1.02,2.38,2.03,4.76,3.04,7.14,2.82-1.21,.91-3.25,.86-4.96-.14-.08-.28-.15-.42-.23,.14,.08,.28,.15,.42,.23,.9-2.99-1.28-5.03-2.48-7.25-2.6-4.82-2-11.44-8.33-14.23-2.61-1.15-1.42-4.89-3.87-6.91-3.29-2.7-5.38-6.75-10.46-7-1.22-.06-2.96-1.55-2.84-3.6-.66,0-1.33,0-1.99,0-.08,.14-.16,.28-.24,.42,.07-.14,.15-.29,.22-.43-.89-4.08-3.76-6.46-7.25-8.16-2.14-1.04-3.58-2.78-3.54-4.92-.09-.28-.16-.56-.22-.85-19.05-6.63-38.36-6.56-58.29-1.87,4.76-4.15,15.43-7.64,23.71-8.23,9.73-.69,19.21,.55,28.53,3.26,1.36-1.15,3.53-2.07,.85-4.15-.48-.38-.81-1.78-.5-2.22,1.51-2.14,1.93-3.85-1.13-4.77-2.63-.78-5.44-4.28-7.87-.03-.89,1.56-1.55,1.32-2.64,.74-.58-.31-1.47-1.14-1.6-1.02-3.46,3.01-4.63-1.48-6.95-2.07-4.38-1.11-4.25-3.06-1.12-5.64-.87-3.64,1.83-6.51,2.13-9.9-3.38-2.1-2.63-6.02-3.74-9.05-.73-2.01,1.97-2.77,3.47-2.55,2.48,.35,3.34-.87,3.89-2.76,.17-.58-.2-1.44,.63-1.65,6-1.55,5.35-6.68,5.86-11.19,1.91,.53,2.58,2.21,4.24,3.64,.79-3.86,2.34-6.71,6.77-4.51,.85-1.72,3.17-1.65,3.88-2.31,3.45-3.15,8.02-.95,11.65-3.12,1-.6,2.44,.13,1.94-1.92,2.18-.44,4.34-1.12,6.53-1.2,1.05-.04,.7,2.91,2.62,2.2,1.44-.53-1.29-2.02,.33-2.84,.28-.14,.48-.45,.71-.69,2.57,2.85,6.08,0,8.46,1.16,3.15,1.54,6.28,1.36,8.39-1.89,.77-1.19,1.99-1.25,2.59,.36,.63,1.7,1.11,3.45,1.66,5.18l.96,.14c.35-.71,.69-1.42,1.04-2.13,5.69,1.16,11.05,3.87,16.97,3.91,2.42,.02,3.22,2.02,4.82,2.94,2.87,1.65,6.16,2.39,9.47,2.97,5.82,1.01,9.75,4.95,13.6,9.09,.7-4.29-1.07-8.4-1.12-12.68Zm-156.71,15.14c-.88,0-.9-.78-.9-1.42,0-.64,.03-1.42,.9-1.42,.86,0,.87,.78,.92,1.42-.06,.64-.04,1.42-.92,1.42Zm-155.59,89.91c-.68,.95-.94,.14-1.29-.27l1.29,.27Zm-1.38-.35c-.98-.36-1.42-1.14-1.8-2.13,1.59,.07,1.73,1.08,1.8,2.13Zm-45.85,101.92c.33,.33,.67,.67,1,1,.21,.15,.42,.3,.63,.45-.51,.59-.6,.03-.79-.28-.34-.33-.67-.67-1.01-1-.22-.19-.44-.39-.65-.59,.7-.69,.65,.08,.82,.42Zm28.73-252.83c1.41,.08,2.96-.38,4.07,.94-1.61-.08-3.22-.16-4.83-.24h-7.83c2.73-1.86,5.58-2.22,8.59-.69Zm4.17,22.97l.68,.52c-.76,.58-.61-.13-.7-.5-1.02,.06-1.42-.57-1.52-1.44-.02-.16,.37-.54,.4-.52,.72,.44,1.19,1.04,1.15,1.94Zm-40.33-30.84c-9.85,0-17.74-7.94-17.63-17.73,.11-9.58,7.91-17.37,17.47-17.44,9.97-.07,17.68,7.54,17.77,17.53,.08,9.95-7.6,17.64-17.6,17.63Zm10.28,20.83c-.59-.02-.9-.31-.91-.88,.3,.29,.6,.59,.91,.88Zm-1.04-1.05l-.63-.17c.5-.69,.51-.12,.63,.17Zm-2.22-1.63c-.54,.6-.52,.07-.61-.22,.2,.07,.41,.15,.61,.22Zm-.83-.38c-.11-.03-.21-.06-.29-.11-.07-.05-.05-.21-.07-.32,.12,.15,.24,.29,.36,.44ZM31.98,302.99c3.52-23.47,15.74-42.38,30.59-60.08,8.1-9.66,17.05-18.73,22.63-30.29,8.2-16.99,11.19-34.34,3.55-52.39-.96-2.28-2.18-4.45-3.28-6.67-.32-.34-.63-.69-.95-1.03-.83-.46-1.25-1.1-.94-2.07-.71,.04-1-.33-1-1-.66,0-.99-.32-.97-.97,.33,.32,.66,.64,.98,.96,.33,.33,.67,.67,1,1,.85,.27,1.2,.9,1.24,1.74l.97,1.05c6.84,6.52,8.83,15.21,9.53,23.94,1.53,19.18-4.13,36.47-15.75,51.75-11.57,15.21-24.04,29.76-33.25,46.68-7.9,14.53-12.83,29.87-14.06,46.27-1.91-3.62-1.75-9.3-.31-18.87Zm18.82-20.28c9.16-13.16,20.31-24.12,34.17-32.35,4.99-2.96,9.63-6.56,14.23-10.11,12.29-9.48,17.18-22.89,19.39-37.57,1.99-13.24,2.63-26.41-3.65-38.99,5.25,5.94,6.93,13.26,7.33,20.59,.75,13.54-1.02,26.84-6,39.63-4.64,11.93-13.72,19.93-23.81,26.85-12.56,8.62-24.21,18.12-33.95,29.93-10.33,12.54-18.11,26.19-20.47,42.57-.75-15.11,4.27-28.36,12.76-40.56Zm62.06-121.68c.24-.12,.6-.39,.68-.33,.33,.28,.58,.66,.88,1.03-.34,.17-.73,.44-.78,.38-.3-.32-.53-.71-.78-1.08Zm27.16,67.05c-5.18,19.51-17.3,32.87-36.3,40.13-10.09,3.86-20.07,8.09-29.81,12.75-14.37,6.88-22.42,19.38-28.22,33.61-1.17,2.87-2.31,5.75-3.76,9.38-.46-6.28,3.86-18.29,8.36-26.6,7.1-13.1,18.71-20.41,31.84-25.95,7.35-3.1,14.62-6.44,22.11-9.17,21.01-7.65,30.75-23.91,34.29-44.72,3.84-22.59,.1-44.04-10.89-64.2-.95-1.74-1.63-3.62-2.44-5.44-.99-.47-1.64-1.19-1.77-2.32-.77-.44-1.16-1.07-1-1.97-.64-.1-.98-.44-.87-1.13-.72,.05-1.06-.28-.99-1.01-.98,.33-1.61-.1-2.04-.95-2.44-1.06-5.12-1.73-6.84-4.01,2.83,.35,5.49,1.02,6.99,3.83,.86-.02,1.55,.27,1.89,1.13,.33,.33,.67,.66,1,1,.34,.32,.68,.65,1.03,.97,.43,.59,.85,1.19,1.27,1.78,1.09,.29,1.62,1.07,1.83,2.12,7.85,10.42,12.29,22.32,15.28,34.87,3.66,15.39,3.05,30.74-.98,45.9Zm2.24,19.36c3.14,13.03,8.43,24.69,18.92,33.58,10.09,8.56,21.5,14.7,34.42,19.99-26.96,1.7-54.46-26.1-53.34-53.57Zm-38.22,68.93c-4.79,.53-8.99-2.42-10.24-6.9-1.46-5.22,.64-9.74,5.68-12.19,.18-.19,.5-.57,.51-.56,.67,.55,.01,.59-.31,.76-.75,2.53-2.88,4.6-2.8,7.35,.1,3.35,.55,6.76,4.02,8.49,4.41,2.21,7.46-.29,10.84-4.2-.85,5.39-3.96,6.83-7.7,7.25Zm-40.53,95.1c-.21-.16-.41-.32-.62-.49,.59-.65,.6,.04,.77,.34,.21,.18,.42,.36,.63,.54-.64,.63-.62-.05-.78-.39Zm87.7,50.21c-3.29,1.38-6.78,1.68-9.64-1.32-.23-.15-.46-.3-.68-.45,.62-.48,.71-.09,.7,.44,1.49,.01,2.99,.09,4.47,.02,2.83-.14,5.09-1.62,5.18-4.38,.1-3.05-1.09-6.06-4.77-6.58-2.12-.3-4.31-.12-6.47-.02-10.17,.49-20.18-.43-30.13-2.74-14.4-3.35-25.09-12.39-35.4-22.15-2.96-2.73-6.2-5.21-8.06-8.94-.31-.35-.63-.69-.94-1.04-.37-.26-.86-.51-.23-.97,.06-.04,.43,.34,.65,.53,.33,.34,.67,.67,1,1.01,3.93,1.91,7.86,3.82,11.79,5.73,5.8,1.95,11.6,3.95,17.42,5.87,3.56,1.18,7.26,1.01,10.85,.4,7.76-1.32,10.16-4.66,9.76-12.87-.36-7.27-2.59-9.43-10.5-10.16,3.92-3.68,8.21-3.57,11.83,.7,4,4.72,5.44,10.24,3.49,16.27-1.81,5.62-6.03,8.3-11.65,9.6-5.61,1.29-10.95,.5-16.1-1.45-5.41-2.05-10.7-4.45-15.62-7.56-1.22-.33-2.44-.67-4.28-1.17,.76,1.16,1.29,1.96,1.82,2.77,4.93,3.67,9.78,7.45,14.79,10.99,10.3,7.29,22.18,9.48,34.43,10.03,6.64,.3,13.31-.1,19.96,.03,5.9,.11,10.08,4.17,10.33,9.98,.13,3.15-.91,6.16-3.99,7.44Zm35.43,8.62c.54-.57,1.14-.98,2.33-.2-.99,.08-1.67,.14-2.33,.2Zm46.63-5.96c-17.84,3.77-33.93-.74-48.48-11.33-3.61-2.63-7.28-5.27-9.69-9.2-.32-.35-.63-.71-.95-1.06-.46-.23-1.42-.33-.89-1.04,.4-.53,1.09-.05,1.43,.54,.37,.29,.73,.59,1.1,.88,10.93,7.03,21.98,13.86,35.03,16.25,12.88,2.36,25.52,2.62,36.88-5.5,.32-.23,.87-.14,2.68-.37-5.14,6.04-10.64,9.47-17.11,10.84Zm53.64-31.57c-.24-.2-.48-.39-.71-.59,.19-.16,.36-.36,.58-.47,.06-.03,.36,.17,.35,.25-.02,.26-.14,.52-.22,.8Zm-19.55-4.73c13.03-6.04,24.73-12.31,29.69-27.45,1.15,12.13-13.71,32.21-29.69,27.45Zm53.92-101.44c.07,1.24,.14,2.48,.21,3.72-1.56-1-.59-2.42-.21-3.72Zm-10.99-1.68c12.09,8.57,17.37,28.59,10.27,41.11,.97-15.33-.88-29.17-14.72-37.7-13.7-8.45-26.77-2.52-40.64,3.87,11.15-13.37,32.34-16.32,45.1-7.27Zm-63.57,18.77c11.59,3.51,22.9,3.7,34.05-1.46,1.19-.55,2.4-1.53,3.68-.44,1.45,1.23,.68,2.7,.19,4.13-3.71,10.77-17.19,19.79-30.78,20.48-2.97,.15-5.95,.02-8.91,.26,10.56,3.62,20.56,.79,30.42-2.8,10.67-3.88,20.68-9.13,30.28-15.17,1.48-.93,3.14-2.68,4.85-.86,1.81,1.92-.34,3.37-1.32,4.7-10,13.53-21.31,25.44-38.68,30.17,.85,.65,1.27,1.23,1.58,1.17,11.65-2.01,23.19-4.33,33.19-11.29,1.39-.97,2.97-3.66,4.98-1.25,1.72,2.06-.53,3.7-1.63,5.19-5.48,7.44-12.22,13.65-19.59,19.13-12.52,9.31-26.02,16.69-41.44,20.04-1.94,.42-3.95,.52-5.92,.77,3.48,1.97,7.31,.24,10.9,1.04,3.34-.24,6.51-1.21,9.69-2.19,1.12-.35,2.39-.52,3.17,.65,.78,1.17,.16,2.18-.66,3.12-18.12,20.87-49.2,36.57-79.94,23.18-4.45-1.94-8.57-4.4-11.81-8.11-.75-.86-1.27-2.14-2.74-1.54-6.73,2.72-13.4,.62-20.09-.21,10.24,6.08,16.03,15.3,19.79,26.42,2.49,7.38,8.73,10.84,16.41,11.52-5.35,2.02-12.05-.19-16.4-5.45-2.14-2.59-3.34-5.66-4.62-8.74-4.4-10.63-10.54-19.53-22.73-22.4-3.56-.84-6.85,.77-10.82,.59,4.7-4.32,10.03-2.57,14.9-3.1-.08-.15-.13-.38-.25-.42-15.44-6.01-22.99-18.08-25.21-33.78-1.68-11.94-6.55-22.99-8.98-34.67-1.79-8.6-1.15-17.25,2.23-25.5,1.82-4.46,4.55-8.17,9.44-9.62,1.65-.49,2.46-1.32,2.54-3.13,.17-3.76,2.33-6.62,5.03-8.88,12.05-10.07,25.47-14.73,41.22-10.23,11.53,3.3,21.57,9.47,31.48,15.93,13.51,8.81,26.8,17.97,42.51,22.73Zm-8.4-56.35c-.04,.11-.25,.17-.38,.25-.13-.72-.27-1.45-.4-2.17,.71,.46,1.06,1.07,.78,1.92Zm2.75-4.22c.14,.29,.36,.55,.35,.81-.01,.25-.27,.48-.42,.72-.13-.26-.36-.51-.35-.77,0-.25,.26-.49,.42-.76Zm-1.69,31.79c4.37-9.47,6.77-19.46,8.43-30.07,5.79,10.38,2.19,23.32-8.43,30.07Zm108.63-140.58c-.25,0-.5-.25-.74-.39,.24-.14,.49-.29,.74-.44,.25,.15,.5,.29,.74,.44-.25,.14-.5,.39-.74,.38Zm46.48,1.11c-.68-.33-.68-.66,0-.99v.99Zm0-1v-3.26c1.56,1.44,.93,2.36,0,3.26Zm22.25,1.54c-.2,.08-.53-.19-.81-.31,.12-.28,.18-.71,.37-.78,.2-.08,.54,.19,.81,.31-.12,.28-.18,.7-.38,.78Zm.33,3.68c-.29-1.49,.95-.82,1.62-.53,.38,.16,.66,.57,1.05,.93-1.13,.52-2.46,.67-2.67-.4Z"/>
    <polygon class="cls-6" points="82.09 390.69 81.93 390.9 82.19 390.94 82.09 390.69"/>
    <path class="cls-14" d="M311.54,393.37c.68-4.49,1.5-8.95,6.68-10.47,1.51-.44,1.85-1.3,1.71-2.49-.23-1.93-1.44-3.95,2.4-3.57,1.55,.15,2.38-2.53,.4-3.3-3.94-1.54-2.05-2.54,0-3.74,.85-.5,1.79-.87,2.7-1.26,.99-.42,2.69-.25,2.39-1.89-.29-1.57-1.65-1.97-4.14-.53,6.96-7.43,7.85-15.8,8.91-23.8,.31-2.32,1.8-3.86,1.87-5.99,.46-1.74,2.83-1.97,3.07-3.88,2.48-2.97,1.93-6.54,1.97-9.99,.62,.65,1.24,1.3,1.86,1.94,1.35,10.22-1.5,19.76-4.66,29.27-4.15,12.5-9.8,24.35-15.46,36.2-1.93,4.05-4.2,8-5.6,12.24-5.32,16.05-15.48,28.86-26.56,41.19-5.8,6.46-13.31,10.44-20.19,15.35-1.67,1.19-3.58,.34-5.34,.69,1.7-2.23,2.46-4.95,5.59-6.36,2.74-1.23,4.98-4.04,2.04-8.24,3.33,1.28,1.65,3.77,3.09,5.15,5.62-2.5,7.06-8.97,11.92-12.68,4.89-3.72,8.74-9.71,11.36-15.84,.08-.14,.15-.28,.23-.41-.08,.14-.15,.28-.23,.41,1.75-3.55,1.14-7.96,5.29-10.79,1.94-1.33,5.5-3.67,3.89-7.66-.1-.24,.06-.83,.24-.9,4.08-1.54,2.95-5.82,4.57-8.64,.14,.07,.28,.15,.43,.22-.14-.08-.28-.16-.41-.23Z"/>
    <path class="cls-11" d="M341.35,324.39c-.62-.65-1.24-1.3-1.86-1.94-1.57-3.48-3.17-6.87-5.91-9.71-10.71-11.1-23.91-15.61-39.05-15.23-1.98,.16-3.96,.31-5.94,.47,.94-6.12-3.98-2.58-6.08-3.7,2.48-1.5,5.36-1.55,8.07-2.21,.71-.19,1.43-.38,2.14-.58,13.52-.95,26.32,.98,37.03,10.11,6.97,5.93,11.52,13.27,11.61,22.78Z"/>
    <path class="cls-14" d="M262.83,464.43s.01-.03,.02-.05c-.13-1.01-.26-2.03-.39-3.04-1.22,.09-3.38-1.27-3.5,.31-.11,1.56-.54,2.96-1.09,4.3,1.62-.61,3.28-1.1,4.94-1.52Z"/>
    <path class="cls-14" d="M224.35,479.07c-1.43-1.49-2.86-2.98-4.06-4.68-.21,1.72,.03,3.38,.38,5.02,1.23-.02,2.46-.15,3.67-.34Z"/>
    <path class="cls-14" d="M167.97,482.8c-1.22-1.04-2.56-1.93-4.21-2.43-.15,.82-.1,1.59,.05,2.33,1.39,.01,2.77,.05,4.16,.1Z"/>
    <path class="cls-12" d="M292.71,291.5c-.71,.19-1.43,.38-2.14,.58,.34-.27,.68-.55,1.02-.82,.37,.08,.75,.16,1.12,.24Z"/>
    <path class="cls-15" d="M171.33,198.09c-1.05-2.45-1.29-5.06-1.57-7.66-7.01-26.33-17.09-51.62-26.01-77.3-1.95-5.62-4.7-10.89-7.64-16.81,5.03,.1,9.45,0,13.81-.82,14.1-2.66,24.76-18.9,20.76-31.88-2.03-6.61-6.21-10.89-13.5-11.39-1.34-.09-2.72,.53-2.87-2.06-.98-17.22-11.73-24.01-28.22-18.06-.29,.1-.65,.01-.98,.01-1.48-12.73-13.36-15.88-22.31-12.87-6.5,2.18-11.51,6.42-16.76,11.64-.42-7.02-2.36-12.56-9.33-14.56-6.88-1.98-12.39,.69-17.2,5.3-3.52,3.37-5.94,7.57-8.23,11.83-.67,1.25-.91,2.5-3.22,1.68-10.92-3.88-19.87,1.93-21.21,13.49-.17,1.46-.17,2.95-.25,4.43-10.03-1.25-15.88,1.58-18.84,9.01-3.55,8.91-1.14,17.49,6.74,22.89,5.93,4.06,12.45,6.96,19.5,8.57,1.03,.24,2.61-.12,2.46,1.68-.11,1.39-1.28,1.79-2.49,2.04-16.11,3.34-25.64,14.41-32.96,28.08-.68,1.26-1.78,2.52-.26,4.01,1.29,1.26,2.45,.42,3.65-.05,7.75-3.01,15.64-2.35,23.6-1.04,2.39,.39,3.3,1.53,3.76,3.82,1.8,8.79,.53,17.21-2.7,25.42-3.04,7.72-7.18,14.98-9.65,22.95-.97,6.39,.78,12.09,4.36,17.34,6.29,7.48,14.5,8.5,24.87,6.19-5.47,5.76-10.16,10.71-14.75,15.55,.08,2.06-.96,4.16-3.49,4.93-.58,.18-1.13,.39-1.66,.62,.12,1.18-.48,2-1.22,2.76-.3,.87-.65,1.72-1.06,2.55,1.16,.39,2.32,.78,3.48,1.17,1.5-1.82,3-3.63,4.49-5.45,1.54-3.01,4.11-5.19,6.31-7.65,5.75-6.45,12.42-12.1,17.18-19.41,4.72-7.26,8.16-14.88,5.74-23.89-.09-.21-.12-.44-.1-.66-3.46-14.94-8.35-29.3-18.27-41.32-4.22-5.12-9.92-8.16-16.71-8.7-.27,.02-.53-.04-.76-.17-6.59-2.22-13.36-1.09-21.09-.73,7.14-11.35,15.35-19.8,28.23-22.09,3.09-.55,4.51-1.79,5.53-4.62,5.72-15.81,17.91-24.67,34.6-25.4,30.92-1.34,53.3,12.96,64.16,41.86,8.98,23.91,17.38,48.05,25.16,72.39,.11,.21,.16,.44,.15,.68,1.5,8.25,2.98,16.5,3.4,24.9,.23,.39,.46,.77,.68,1.16,1.12-.29,2.23-.59,3.35-.88-.02-.72,.09-1.43,.31-2.08-.37-3.79-1.43-7.53-1.01-11.38ZM39.48,135.06c10.79,14.39,18.67,29.96,18.09,48.5-.35,11.12-10.35,19.12-20.62,17.13-10.01-1.94-15.84-11.94-12.6-21.62,.37-1.1,.77-2.2,1.25-3.26,6.03-13.43,13.21-26.54,10.82-41.91,1.94-.58,2.55,.47,3.07,1.16Zm89.16-48.01c-17.38-16.98-38.34-22.43-61.88-18.62-11.26,1.82-19.7,8.4-25.92,17.85-1.08,1.64-1.72,3.71-4.26,3.56-.38,.39-.69,.28-.94-.15-7.15-1.84-13.92-4.54-19.77-9.14-6.22-4.88-7.08-14.57-1.97-20.48,4.45-5.16,12.14-4.34,15.37,1.61,.9,1.65,1.54,4.51,4.03,3.23,2.69-1.39,.9-3.94-.08-5.67-2.44-4.33-3.05-8.76-1.5-13.44,1.34-4.07,4.19-6.8,8.27-8.01,4.48-1.32,8.17,1.42,8.45,6.06,.02,.33,0,.67,.05,1,.29,2.32,.46,5.49,3.37,5.15,2.9-.33,2.28-3.61,2.13-5.8-.56-8.07,5.74-19.31,12.99-22.87,7.84-3.84,14.67,.41,14.66,9.07,0,3.57-1.12,6.86-2.23,10.18-.54,1.63-2.13,3.67,.36,4.69,2.37,.97,2.95-1.52,3.78-3.04,3.67-6.69,8.52-12.3,14.93-16.48,3.56-2.31,7.4-3.77,11.76-3.37,4.28,.4,7.76,2.2,9.57,6.18,1.73,3.8,1.09,7.29-1.82,10.56-2.44,2.74-4.12,6.06-4.76,9.76-.2,1.13-.11,2.56,.89,3.16,1.36,.8,2.07-.68,2.71-1.52,1.5-1.98,3.25-3.92,4.14-6.18,2.37-6.01,6.97-9.06,12.85-10.69,.27-.14,.56-.19,.86-.16,.62,0,1.25,0,1.87-.01,1.08-.06,2.18-.24,3,.75,10.05,4.48,13.89,13.09,8.58,19.79-2.12,2.68-5.17,4.6-7.61,7.05-1.15,1.14-3.64,2.27-2.02,4.34,1.82,2.33,3.5,.03,5.07-.93,4.16-2.53,6.49-7.73,12.05-8.24,.64-.86,1.29-.88,1.95-.03,6.62,2.02,10.22,7.04,9.82,13.68-.94,15.76-19.16,27.21-33.75,21.2-2.07-.85-3.45-2.56-4.99-4.06Z"/>
    <path class="cls-11" d="M165.62,235.37c0-.64,0-1.29,0-1.93,1.09-.58,1.2-1.16,1.11-2.61-.3-4.56-1.49-9.4,1.91-13.48,1.59,1.92,1.4,4.48,2.35,6.62-1.03,5.93-.38,12.25,2.37,16.99,6.85,11.82,14.86,22.42,28.19,28.81,14.15,6.77,27.87,8.01,42.41,3.48,8.01-2.5,15.41-6.41,20.94-12.89,2.6-3.04,3.38-7.39,6.07-10.51,1.69-1.96,1.81-4.19,1.5-6.56,.42-.95,.85-1.9,1.27-2.85,.19-.46,.38-.91,.57-1.37,.21-1.55,.42-3.09,.63-4.64,.12-.45,.24-.9,.37-1.34-.11-2.89-.21-5.77-.32-8.66,.09-.11,.27-.25,.24-.33-.07-.25-.23-.48-.35-.71-1.41-13.59-6.67-26.19-10-39.29-.89-3.51-1.41-7.11-2.1-10.66,1.24-4.29,2.88-8.52,3.65-12.9,2.02-11.44,8.39-20.34,16.25-28.27,2.16-2.18,5.53-3.52,8.97-1.74-1.36,1.41-.99,3.22-1.12,4.91-4.88,11.21-5.75,22.98-4.94,34.99-2.41,.05-5.96-4.69-4.81-7.5,2.43-5.93,.56-12.1,1.77-18.05,.38-1.9-.96-2.46-2.99-1.43h.01c-1.78,2.5-3.06,5.52-6.5,6.37-.13,.03,0,.91-.07,1.38-.68,4.97-1.92,10.13-3.58,14.5-2.87,7.55-.57,14.12,.3,21.12,1.25,10.15,9.83,18.28,7.99,29.28-.09,.53,.43,1.25,.82,1.75,1.65,2.06,1.73,4.49,2.14,6.98,.7,4.15-.39,8.19-.07,12.26,.74,9.41-3.1,17.04-8.9,24.01-5.14,6.18-12.21,9.9-18.64,14.33-4.2,2.89-9.91,2.4-14.92,2.99-2.62,.31-2.69,3.49-4.33,2.9-6.66-2.4-14.38,1.63-20.69-3.84-1.28-1.11-4.47-1.59-6.85-2.14-5.04-1.18-9.76-3.35-13.67-6.93,.08-.14,.16-.28,.24-.41-.08,.14-.15,.28-.23,.42-9.27-5.13-13.85-14.43-20.08-22.3-2.69-3.4-2.19-8.74-6.87-10.74Z"/>
    <path class="cls-5" d="M272.45,243.29c.31,2.37,.19,4.6-1.5,6.56-2.69,3.12-3.47,7.47-6.07,10.51-5.53,6.47-12.93,10.39-20.94,12.89-14.54,4.53-28.26,3.29-42.41-3.48-13.34-6.38-21.34-16.99-28.19-28.81-2.75-4.74-3.4-11.06-2.37-16.99,4.34,8.42,8.25,17.12,14.49,24.37,9.56,11.11,21.8,17.14,36.41,18.3,14.59,1.16,27.46-3.37,39.38-11.54,4.65-3.19,7.11-8.22,11.2-11.81Z"/>
    <path class="cls-11" d="M24.61,351.4c0,.66,.01,1.33,.02,1.99-.75,4.41,.09,8.24,3.96,10.98,0,.68,0,1.36,0,2.03-.3,2.21,.45,4.27,1.3,6.19,.39,.87,.24,3.69,2.73,1.8,.81,.43,.95,1.18,.99,1.99-.99,5.63,3.48,9.88,3.79,15.31,.25,4.27,5.5,6.74,5.27,11.54-4.2-3.61-6.45-8.63-9-13.3-7.48-13.68-13.36-28.06-17.23-43.21-1.29-5.04-2.56-10.09-2.94-15.3,1.66-1.35,.55-1.74-.72-2.08-.07-.32-.05-.62,.08-.92,.12-.1,.34-.2,.33-.28-.02-.26-.13-.51-.21-.77-.17-.99-.35-1.98-.52-2.97,.44-.18,1.27-.35,1.27-.53,.08-8.68,.91-17.39,.94-25.99,.06-14.09,4.5-26.86,8.71-39.77,2.04-6.26,3.71-12.33,3.09-18.91,.11-1.87,.59-3.58,2.14-4.81,1.9,8.02-.51,15.58-1.89,23.39-.97,5.5-4.69,10-4.77,15.45-.07,4.35-.27,9.25-1.84,12.6-2.55,5.43-1.92,10.17-1.2,15.44,.34,2.48,.09,5.13-.9,7.56-.34,.84-1.43,1.29-.88,2.56,3.07,7.03-.64,15.22,3.74,22.04-2.61,5.44,3.93,9.66,2.04,15.11-.23,.67,1.1,1.89,1.7,2.85Z"/>
    <path class="cls-14" d="M42.67,403.23c.23-4.8-5.02-7.27-5.27-11.54-.32-5.43-4.79-9.68-3.79-15.31,3.22,0,5.36,2.62,4.57,5.66-.48,1.86,1.66,1.7,2.31,3.05,2.09,4.36,2.71,9.22,5.07,13.41,2.06,3.67,6.09,6.21,6.35,10.93,4.73-.38,3.09,2.25,2.49,4.78-.22,.92,1.69,1.45,2.37,2.27,4.06,4.89,9.65,8.34,12.93,13.98,1.82,3.13,6.17,3.7,7.64,7.55,.44,1.14,2.22,2.24,3,3.72,.38,.72,1.18,2,1.36,1.93,4.73-1.88,7.09,3.08,10.91,3.7h0c1.07,2.15-2.96,.29-1.92,2.43,1.61-.8,.62,3.46,3.88,1.49,3.11-1.88,8.89,3.37,8.85,7.32-.01,1.38,.11,1.72,1.42,1.6,2.2-.19,5.46,1.74,4.89-3.62,1.74,2.47-1.08,6.97,4.29,5.98,.93-.17,2.37,2.46,3.57,3.79,5.05,1.21,9.88,2.97,14.2,5.9,2.22,1.51,4.3,2.78,7.23,1.51,1.64-.71,4.27,3.4,5.18-1.2,2.39,1.61,2.96,8.19,7.2,2.29,2.11,2.59,6.23,.37,8.16,3.41-16,1.5-30.8-2.7-45.07-9.44-1.64-.77-3.27-1.54-4.91-2.3-20.21-11.59-37.39-26.75-52.78-44.15-5.3-6-10.56-11.9-14.13-19.12Z"/>
    <path class="cls-14" d="M24.61,351.4c-.61-.96-1.94-2.18-1.7-2.85,1.89-5.44-4.65-9.67-2.04-15.11-4.37-6.82-.67-15.01-3.74-22.04-.56-1.27,.54-1.72,.88-2.56,.99-2.43,1.24-5.08,.9-7.56-.72-5.27-1.35-10.01,1.2-15.44,1.57-3.35,1.77-8.24,1.84-12.6,.08-5.46,3.8-9.95,4.77-15.45,1.38-7.81,3.79-15.37,1.89-23.39,.46-.95,.92-1.91,1.38-2.86,1.5-1.82,3-3.63,4.5-5.45,1.82,3.1-.04,7.07,2.36,10.04-4.46,2.27,2.88,6.25-1.24,8.57,.99,1.24,3.04,1.82,2.6,3.98-1.88,1.05-1.11-1.74-2.85-1.4,.91,2.26-1.59,6.03,3.46,6.19-2.04,1.94-1.95,4.83-3.16,7.15-13.17,25.28-18.38,51.57-9.91,79.56-1.8,3.6-.42,7.51-1.12,11.22Z"/>
    <path class="cls-5" d="M291.63,130.53c-3.44-1.78-6.81-.44-8.97,1.74-7.86,7.93-14.23,16.83-16.25,28.27-.77,4.38-2.41,8.6-3.65,12.9-2.72-10.3-.59-19.94,3.8-29.36,3.47-7.43,7.69-14.25,13.99-19.62,2.01,.08,3.62-.64,5.34-1.79,2.92-1.95,6.16-3.65,9.76-1.24-1.47,2.98-1.98,6.38-4.02,9.1Z"/>
    <path class="cls-5" d="M26.46,239.2c.62,6.58-1.05,12.65-3.09,18.91-4.21,12.91-8.65,25.69-8.71,39.77-.04,8.6-.86,17.31-.94,25.99,0,.18-.83,.35-1.27,.53-1.13-7.92-2.54-15.92-1.7-23.87,1.01-9.57,1.38-19.24,3.87-28.66,2.98-11.26,5.58-22.62,11.85-32.67Z"/>
    <path class="cls-12" d="M295.65,121.43c-3.6-2.41-6.84-.71-9.76,1.24-1.72,1.15-3.33,1.87-5.34,1.79,3.97-4.78,9.26-7.66,14.83-10.07,1.1-.48,2.52-1.65,3.58-.28,.78,1.01-.35,2.15-.84,3.13-.73,1.44-1.64,2.8-2.47,4.2Z"/>
    <path class="cls-14" d="M168.63,217.35c-3.39,4.08-2.21,8.93-1.91,13.48,.1,1.45-.01,2.03-1.11,2.61-2.55-2.45-4.24-5.04-1.62-8.49,.88-1.16,.91-2.7,.46-3.83-1.75-4.43,.69-7.18,3.54-9.85,.23,.39,.46,.77,.69,1.16-.02,1.64-.04,3.28-.05,4.92Z"/>
    <path class="cls-5" d="M12.77,329.35c1.28,.33,2.38,.72,.72,2.08-1.01-.43-.91-1.23-.72-2.08Z"/>
    <path class="cls-5" d="M12.97,327.37c.08,.26,.19,.51,.21,.77,0,.08-.22,.19-.33,.28,.04-.35,.08-.7,.12-1.05Z"/>
    <path class="cls-5" d="M274.29,239.07c-.19,.46-.38,.91-.57,1.37,.19-.46,.38-.91,.57-1.37Z"/>
    <path class="cls-5" d="M275.29,233.09c-.12,.45-.25,.9-.37,1.34,.12-.45,.24-.9,.37-1.34Z"/>
    <path class="cls-5" d="M274.87,223.39c.12,.24,.27,.46,.35,.71,.02,.08-.16,.22-.24,.33-.03-.35-.07-.7-.1-1.04Z"/>
    <path class="cls-14" d="M311.41,182.42c-4.13,8.77-9.17,17.16-11.24,27.67-2.41-5.93-2.05-11.55-3.28-16.85,.37-1.02,.23-1.98-.32-2.89,.05-4.29,.1-8.59,.15-12.88,.77-.05,1.44-.28,1.81-1.03h0c1.33-.03,3.56-.06,3.35-1.32-.7-4.18,3.34-5.98,4.05-8.75,1.35-5.29,4.78-9.41,6.33-14.45,.78-2.53,2.38-4.64,3.65-6.92,3.47-6.28,7.67-12.08,11.7-17.98,2.3-3.36,4.7-7.24,8.04-9.16,6.14-3.52,11.57-8.03,17.68-11.59,5.74-3.35,11.37-6.73,17.83-7.96,3.44-.65,6.65-3.86,10.53-1.55-.31,.46-.62,.91-.92,1.37-1.07,.48-2.14,.96-3.22,1.44-1.93-2.02-2.26,.91-3.49,1.16-1.24,.24-1.26,2.34-3.11,2.02-3.67-.64-6.31,2.31-9.47,3.37-2.86,.95-6.24,2.4-7.86,6.73-2,5.35-5.85,5.84-9.45,3.14-.42,3.2-6.94,10.11-10.27,10.48-2.09,.23-2.04,1.42-2.48,2.95-1.11,3.89-2.3,7.91-7.41,8.63,1.34,1.7,3.67,2.08,3.49,4.4-.65,.66-1.29,1.33-1.94,1.99-3.86-.27-4.33,2.1-3.97,5.1l.02-.05c-.34,.36-.67,.72-1.01,1.09h.08c-2.34-.13-2.16,1.48-2.1,3.02-.87,1.89-2.72,3.43-2.1,5.86l.05-.05c-1.13-.53-1.65,.14-2.06,1.03-3.62,2.42-3.86,6.18-3.96,9.99-.85,2.2-6.97,3.73-.83,6.85,.77,.39,.46,1.29-.02,2.13-1,1.77-.05,2.69,1.73,3.01Z"/>
    <path class="cls-5" d="M300.54,158.47c.25-3.05,1.74-5.69,2.95-8.39,5.31-11.81,11.59-23.07,19.18-33.58,7.81-10.81,18.62-17.76,30.38-23.49,15.32-7.46,31.11-13.19,48.45-13.25,.58,0,1.16,0,2.76,0-5.95,4.12-10.3,8.63-15.86,11.52-.7-1.41-1.64-1.81-3.23-1.21-3.89,1.47-8.05,1.85-12.06,3.1-11.94,3.71-22.64,9.59-33.17,16.06-13.02,8-20.06,21.15-28.38,33.11-3.37,4.85-5.35,10.67-8.09,15.98-.65,1.26-1.79,3.64-2.93,.15Z"/>
    <path class="cls-14" d="M413.52,137.45c-1.33-.03-2.66-.06-3.99-.09-.04-.29-.09-.57-.15-.86,2.24,.12,4.72-.98,5.44-2.39,1.42-2.79-4.62-5.57-.69-9.08,.11-.1-.64-1.78-1.18-1.9-3.52-.79-3.13-3.69-3.56-6.17,1.72-.83,3.44-1.66,5.16-2.49,3.65-1.33,7.3-2.67,10.96-4,1.25,2.47,3.86,2.91,5.97,2.84,4.37-.14,8.19,.72,12.45,2.06,6.54,2.06,9.73,7.37,14.54,11.02-.09,.23-.13,.47-.14,.72-13.57,5.12-27.69,7.92-42,9.95-1.01-.4-1.93-.21-2.8,.38Z"/>
    <path class="cls-11" d="M300.54,158.47c1.15,3.49,2.28,1.11,2.93-.15,2.74-5.31,4.72-11.13,8.09-15.98,8.32-11.97,15.36-25.11,28.38-33.11,10.52-6.47,21.23-12.35,33.17-16.06,4.01-1.25,8.18-1.62,12.06-3.1,1.59-.6,2.53-.2,3.23,1.21-2.18,1.89-3.96,4.27-6.71,5.47-3.88-2.31-7.1,.89-10.53,1.55-6.45,1.23-12.08,4.61-17.83,7.96-6.11,3.57-11.54,8.08-17.68,11.59-3.35,1.92-5.75,5.8-8.04,9.16-4.04,5.9-8.23,11.7-11.7,17.98-1.26,2.29-2.87,4.4-3.65,6.92-1.55,5.03-4.98,9.16-6.33,14.45-.71,2.77-4.75,4.57-4.05,8.75,.21,1.25-2.03,1.28-3.35,1.32-.14-.08-.28-.15-.41-.23,.14,.08,.28,.15,.42,.23-.37,.75-1.04,.98-1.81,1.03,.1-2.01,.2-4.03,.3-6.04,.22-1.82,.44-3.65,.67-5.47,.22-.5,.44-.99,.66-1.49,.38-1.02,.77-2.04,1.15-3.06,.14-.07,.4-.13,.4-.2,0-.26-.08-.53-.13-.79l.77-1.95Z"/>
    <path class="cls-11" d="M458.45,126.4c-4.81-3.65-7.99-8.96-14.54-11.02-4.25-1.34-8.07-2.2-12.45-2.06-2.11,.07-4.72-.37-5.97-2.84,3.74-1.86,7.48-3.73,11.22-5.59,1.76,2.67,5.06,1.03,7.21,2.6-3.54,2.92-2.63,4.65,1.51,5.28,3.6,.55,7.24,.9,10.86,1.33,1.03,3.41,4.17,3.49,6.83,4.46,3.4,1.24,7.01-.65,10.34,.88-4.74,2.9-9.56,5.62-15.02,6.96Z"/>
    <path class="cls-5" d="M473.47,119.45c-3.33-1.53-6.93,.36-10.34-.88-2.66-.97-5.8-1.05-6.83-4.46,8.42-.78,16.75-1.83,24.6-5.37,3.34-1.51,6.47-3.3,9.59-5.18,.69-.04,1.38-.08,2.07-.12-4.88,7.11-11.2,12.5-19.1,16.02Z"/>
    <path class="cls-5" d="M397.27,97.26c9.52-3.74,19.21-4.56,30.32-1.57-5.02,3.2-8.72,6.77-13.53,8.82-4.05-.59-7.94-1.23-10.98-4.63-1.29-1.45-3.83-1.78-5.81-2.62Z"/>
    <path class="cls-14" d="M388.54,100.48c2.19-.02,3.62-2.35,5.95-1.94-.79,4.1,2.79,4.9,4.91,7.01,2.21,2.2,6.89,.76,7.29,5.23-1.69,1.62-3.39,3.24-5.08,4.86-1.19-1.42-2.15-2.73-4.05-3.78-4.22-2.35-9.9-3.53-11.1-9.55,.69-.61,1.39-1.22,2.08-1.83Z"/>
    <path class="cls-15" d="M388.54,100.48c-.69,.61-1.39,1.22-2.08,1.83-4.96,2.11-8.68,5.78-12.23,9.68-1.14,1.25-2.11,3.67-4.26,2.18-2.46-1.71-.28-3.61,.67-5.07,2.14-3.29,4.6-6.37,6.92-9.53,1.07-.48,2.14-.96,3.22-1.44,2.59,.78,5.17,1.57,7.76,2.35Z"/>
    <path class="cls-11" d="M406.69,110.78c-.39-4.47-5.08-3.03-7.29-5.23-2.12-2.11-5.7-2.92-4.91-7.01,.93-.42,1.86-.85,2.78-1.28,1.97,.84,4.51,1.17,5.81,2.62,3.04,3.4,6.93,4.04,10.98,4.63-1.56,1.57-3.11,3.14-4.67,4.71-.9,.52-1.8,1.04-2.71,1.56Z"/>
    <path class="cls-15" d="M406.69,110.78c.9-.52,1.8-1.04,2.71-1.56,.23,3.21,3.31,3.63,5.15,5.26-1.72,.83-3.44,1.66-5.16,2.49-1.53,.5-3.03,1.08-4.59,1.46-2.28,.56-3.36-.44-3.19-2.79,1.69-1.62,3.39-3.24,5.08-4.86Z"/>
    <path class="cls-12" d="M443.93,107.49c-2.15-1.57-5.46,.07-7.21-2.6,4.26-2.15,8.51-4.29,13.72-6.92-1.27,4.69-2.82,7.82-6.51,9.52Z"/>
    <path class="cls-12" d="M492.57,103.43c-.69,.04-1.38,.08-2.07,.12,.52-1.25,1.32-2.15,2.8-1.9,.3,.05,.52,.61,.78,.94-.5,.28-1,.56-1.5,.84Z"/>
    <path class="cls-8" d="M421.83,106.8c-.95,.9-2.3,1.13-2.95,.21-.4-.57,1.17-.77,1.79-1.22,.39,.34,.77,.67,1.16,1.01Z"/>
    <path class="cls-15" d="M298.35,164.47c-.22,.5-.44,.99-.66,1.49,.22-.5,.44-.99,.66-1.49Z"/>
    <path class="cls-5" d="M299.77,160.42c.05,.26,.13,.53,.13,.79,0,.07-.26,.13-.4,.2,.09-.33,.18-.66,.27-.99Z"/>
    <path class="cls-14" d="M388.51,299.4c.9-2.99-1.28-5.03-2.48-7.25-2.6-4.82-2-11.44-8.33-14.23-2.61-1.15-1.41-4.89-3.87-6.91-3.29-2.7-5.38-6.75-10.46-7-1.22-.06-2.96-1.55-2.66-4.25,.07-.37-.06-.1-.15,.19-.17,.54,0,.64,.36,.22,.18-.21,.26-.53,.34-.81,.01-.04-.23-.16-.54,.41-.85,.65-1.51,.65-2.18,.65h-.01c-.89-4.09-3.76-6.47-7.25-8.18-2.14-1.04-3.58-2.78-3.54-4.92,2.29,.79,4.59,1.59,6.89,2.38,2.99,2.06,5.96,4.15,8.96,6.19,6.64,4.5,11.38,10.94,16.97,16.52l-.02-.03c.05,1.49,.64,2.59,2.16,3.03,5.94,5.94,7.44,14.14,10.82,21.37,1.11,2.36,2.6,4.84,.99,7.62-.14-.08-.28-.16-.42-.23,.14,.07,.29,.15,.43,.22,.3,2.57-.56,5.06-.31,7.73,.19,2.02,.01,5.37-3.38,6.15l-.36,.14c-.14-4.84-1.87-9.37-2.82-14.05,2.82-1.21,.91-3.25,.86-4.96h0Z"/>
    <path class="cls-11" d="M353.97,346.27c-.98-3.79,.41-7.63,.97-11.12,.94-5.79-.03-11.15-.59-16.69,1.48-.07,2.99-.18,3.15,1.92-.08,.15-.15,.29-.23,.44,.08-.14,.16-.28,.24-.42,3.39,1.56,6.77,3.62,10.18,.05,.56,5.51-2.51,10.47-2.43,15.9-.19,.43-.38,.86-.58,1.29-.1,.57-.19,1.13-.29,1.7-2.22-.11-3.18,1.13-3.63,3.15-1.03,4.62-2.75,8.73-8.08,9.83,.31-1.3,.63-2.6,.94-3.89,.72-.16,2.01-.21,2.07-.49,.22-1.15-.87-1.37-1.72-1.67Z"/>
    <path class="cls-14" d="M367.7,320.46c-3.41,3.57-6.8,1.51-10.18-.05l-.02-.02c-.16-2.1-1.67-1.99-3.15-1.92-.23-.69-.45-1.38-.68-2.07,.1-.12,.31-.29,.29-.34-.13-.24-.32-.44-.48-.66-3.47-9.8-8.39-18.71-15.92-26.02,3.41-2.49,5.11,1.08,7.07,2.41,2.02,1.36,3.32,3.86,3.05,6.91,1.46-1.18,.12-3.01,1.97-3.89,.37,4.61,2.27,8.12,6.85,9.58h0c-1.03,3.21,.86,5.16,3,7-.08,.14-.15,.28-.23,.42,.08-.14,.15-.28,.23-.42,3.04-.17,5.74,2.6,8.94,1.01,.11,2.72,.26,5.44-.75,8.05Z"/>
    <path class="cls-5" d="M352.69,352.32c5.34-1.1,7.05-5.21,8.08-9.83,.45-2.02,1.42-3.26,3.63-3.15-3.08,12.3-8.38,23.27-18.8,31.14l-.23-.23c2.44-5.98,4.87-11.95,7.31-17.93Z"/>
    <path class="cls-14" d="M282.5,294.29c2.09,1.12,7.02-2.42,6.08,3.7-2.04,.69-4.08,1.37-6.12,2.06-.91,.16-1.82,.32-2.73,.47-1-.28-1.76-1.22-3.1-.34-2.32,1.53-3.99,.29-5.19-1.84,3.38-2.18,7.18-3.22,11.06-4.05Z"/>
    <path class="cls-5" d="M353.97,346.27c.85,.3,1.94,.52,1.72,1.67-.05,.28-1.34,.33-2.07,.49,.11-.72,.23-1.44,.34-2.16Z"/>
    <path class="cls-12" d="M369.27,307.12c-.53-1.47-.46-2.93,.1-4.38-.03,1.46-.06,2.92-.1,4.38Z"/>
    <path class="cls-5" d="M364.7,337.65c.19-.43,.38-.86,.58-1.29-.19,.43-.38,.86-.58,1.29Z"/>
    <path class="cls-11" d="M353.49,315.4c.17,.22,.36,.42,.48,.66,.03,.05-.19,.22-.29,.34-.06-.33-.13-.67-.19-1Z"/>
    <path class="cls-5" d="M345.61,370.48c-.17,.2-.33,.4-.5,.59-.55-.49-.12-.65,.27-.82,0,0,.23,.23,.23,.23Z"/>
    <path class="cls-12" d="M379.37,299.15l-.14-.39s.29-.34,.29-.34c.02,.26-.03,.5-.14,.73Z"/>
    <path class="cls-12" d="M302.34,278.32c.49-.46,.98-.47,1.49-.04-.5,.01-.99,.03-1.49,.04Z"/>
    <path class="cls-12" d="M320.22,254.49l-.34,.16s-.31-.25-.31-.25c.23-.02,.44,0,.66,.09Z"/>
    <path class="cls-12" d="M300.82,253.54c-.38,.07-.76,.15-1.13,.22,.38-.07,.76-.14,1.13-.22Z"/>
    <path class="cls-12" d="M296.55,250.42l.34-.29s.38,.17,.38,.17c-.23,.11-.47,.14-.72,.12Z"/>
    <path class="cls-14" d="M393.46,177.56c.35-.71,.69-1.42,1.04-2.13,0,0,0,0,0,0,5.69,1.16,11.05,3.87,16.97,3.91,2.42,.02,3.22,2.02,4.82,2.94,2.87,1.65,6.16,2.39,9.47,2.97,5.82,1.01,9.75,4.95,13.6,9.09,.7-4.29-1.07-8.4-1.12-12.68-.03-2.24-3.68-1.31-4.75-3.23h0c-.11-.93-.1-2.79-.83-2.47-4.61,2.07-5.56-1.46-7.1-4.24-.99-1.78-3.01-2.76-4.54-2.44-3.82,.8-3.76-1.89-4.47-4.08,5.01,.85,9.11,4.11,13.99,5.3,2.61,1.46,5.22,2.89,7.81,4.38,16.33,9.38,27.8,22.77,33.77,40.76,3.18,9.6,3.57,19.5,3.64,29.46-1.82-.2-3.65-.39-5.47-.59,0,0,.06,.05,.06,.05-.23-.39-.45-.78-.68-1.17-1.97-6.41-4.22-12.7-8.07-18.29-8.77-16.98-22.49-28.82-39.1-37.68-9.15-4.88-19.08-7.41-29.04-9.87Z"/>
    <path class="cls-11" d="M401.66,216.12c-16.25-4.65-31.57-1.83-46.29,5.79-1.62,.84-3.23,1.69-4.84,2.53-.94-1.03-1.41-3.78-3.19-2.25-1.46,1.26-1.23,.38-2.37-.04-3.46-1.27-6.88,1.24-10.45,1.28l.02-.02c-3.03-1.35-6.07-2.7-9.1-4.05,3.98-3.72,8.57-6.62,13.03-9.71,.4,1.93,1.22,2.88,3.48,2.18,4.13-1.28,8.46-1.99,12.51-3.48,4.52-1.67,9.34-2.15,13.79-3.6,5.12-1.67,10.48-1.99,15.57-2.97,6.54-1.26,14.07-1.23,20.48,2.49,1.78,1.03,3.26-1.67,5.3,.54,2.52,2.72,6.39,4.15,9.17,6.7,3.79,3.47,9.93,5.17,9.73,11.93l.02-.03c-.34,.34-.67,.67-1.01,1.01-8.32-2.71-16.34-6.39-25.01-7.99-.27-.1-.54-.21-.81-.31Z"/>
    <path class="cls-5" d="M427.49,224.42c.34-.34,.67-.67,1.01-1.01,.35,.35,.55,1.24,1.25,.34l-1.27-.31c.2-6.76-5.95-8.46-9.73-11.93-2.78-2.54-6.65-3.97-9.17-6.7-2.04-2.2-3.52,.5-5.3-.54-6.41-3.72-13.93-3.75-20.48-2.49-5.08,.98-10.45,1.31-15.57,2.97-4.45,1.45-9.26,1.93-13.79,3.6-4.04,1.49-8.37,2.21-12.51,3.48-2.25,.7-3.08-.25-3.48-2.18,14.71-8.7,30.41-14.02,47.68-14.07,14.77-.05,27.76,4.59,38.59,14.72,5.78,5.4,12.37,10.09,16.61,17.93-5.24-.54-9.66-1.71-13.85-3.82Z"/>
    <path class="cls-11" d="M394.5,304.41c1.61-2.79,.11-5.26-.99-7.62-3.39-7.23-4.89-15.43-10.82-21.37-.25-1.34-.02-3.03-2.16-3.03,0,0,.02,.03,.02,.03,.38-1.26-.17-2.27-.86-3.23-6.73-9.42-14.69-17.48-25.09-22.86-1.35-.94-2.71-1.88-4.06-2.83,1.79-3.51-2.66-6.37-1.05-9.86,1.14,.27,2.28,.54,3.42,.81,1.17,.76,2.35,1.51,3.52,2.27,1.82,6.05,4.76,10.88,10.32,14.73,10.78,7.46,18.5,18.03,25.8,28.79,2.24,3.3,2.99,7.24,4.35,10.91,1.51,4.07,.87,9.02,4.48,12.3-.01,.98-.02,1.97-.04,2.95-1.24,1.64-1.2,3.31-.11,5.01-.04,.63-.09,1.26-.13,1.89-1.3,.43-2.06,1-.52,2.12,.19,2.75-.63,5.34-1.23,7.96-.16,.48-.33,.96-.49,1.44-.13,.53-.26,1.05-.39,1.58-2.28,1.65-4.56,3.3-6.83,4.95-.27-4.36-.54-8.71-.82-13.07,3.39-.78,3.56-4.14,3.38-6.15-.25-2.67,.61-5.16,.31-7.73h0Z"/>
    <path class="cls-14" d="M322.62,210.59c-3.38-2.1-2.63-6.02-3.74-9.05-.73-2.01,1.97-2.77,3.47-2.55,2.48,.35,3.34-.87,3.89-2.76,.17-.58-.2-1.44,.63-1.65,6-1.55,5.35-6.68,5.86-11.19,1.91,.53,2.58,2.21,4.24,3.64,.79-3.86,2.34-6.71,6.77-4.51,.85-1.72,3.17-1.65,3.88-2.31,3.45-3.15,8.02-.95,11.65-3.12,1-.6,2.44,.13,1.94-1.92,2.18-.44,4.34-1.12,6.53-1.2,1.05-.04,.7,2.91,2.62,2.2,1.44-.53-1.29-2.02,.33-2.84,.28-.14,.48-.45,.71-.69,2.57,2.85,6.08,0,8.46,1.16,3.15,1.54,6.28,1.36,8.39-1.89,.77-1.19,1.99-1.25,2.59,.36,.63,1.7,1.11,3.45,1.66,5.18-2.25-.03-4.51-.06-6.76-.09-.34-.05-.69-.09-1.03-.14-17.19-1.39-33.21,1.67-47.2,12.43-.65-.12-.9,.18-.84,.8-5.98,5.82-10.3,12.79-14.05,20.17Z"/>
    <path class="cls-14" d="M349.48,233.62c-1.62,3.5,2.84,6.35,1.05,9.86-1.02-.3-2.04-.6-3.06-.9-2.01-.99-4.01-1.97-6.02-2.96,1.36-1.15,3.53-2.07,.85-4.15-.48-.38-.81-1.78-.5-2.22,1.51-2.14,1.93-3.85-1.13-4.77-2.63-.78-5.44-4.28-7.87-.03-.89,1.56-1.55,1.32-2.64,.74-.58-.31-1.47-1.14-1.6-1.02-3.46,3.01-4.63-1.48-6.95-2.07-4.38-1.11-4.25-3.06-1.12-5.64,2.11,1.67,3.42-.18,4.93-1.12,3.03,1.35,6.07,2.7,9.1,4.05,.13,.08,.26,.16,.4,.23-.14-.07-.27-.15-.41-.22,3.58-.03,7-2.55,10.45-1.28,1.14,.42,.91,1.3,2.37,.04,1.78-1.53,2.25,1.22,3.19,2.25-.62,.5-1.31,.95-1.86,1.52-1.38,1.44-4.23,1.76-4.03,4.38,.22,2.82,3.38,1.93,4.84,3.28Z"/>
    <path class="cls-8" d="M328.97,210.9c-.36,.19-.89,.64-1.04,.53-.64-.46-.28-.98,.11-1.45,.31,.3,.62,.61,.92,.92Z"/>
    <path class="cls-12" d="M336.66,190.42c-.06-.62,.2-.92,.84-.8-.28,.27-.56,.53-.84,.8Z"/>
    <path class="cls-12" d="M384.71,177.19c.34,.05,.69,.09,1.03,.14-.34-.05-.69-.09-1.03-.14Z"/>
    <path class="cls-12" d="M401.66,216.12c.27,.1,.54,.21,.81,.31-.3-.02-.57-.13-.81-.31Z"/>
    <path class="cls-6" d="M401.61,115.64c-.18,2.35,.91,3.34,3.19,2.79,1.56-.38,3.06-.97,4.59-1.46,.43,2.47,.04,5.37,3.56,6.16,.54,.12,1.29,1.8,1.18,1.9-3.93,3.51,2.11,6.29,.69,9.08-.72,1.41-3.2,2.51-5.44,2.39l-1.87-.16c-.07-1.35,1.35-2.88-.56-4.07-.82,1.77-1.64,3.53-2.45,5.28-10.62,1.56-21.43,1.59-31.97,3.83-1.11,.24-2.19,.63-3.29,.96,0,0-.36-.14-.36-.14l-.31,.27c-1.18-.04-2.32,.05-3.29,.82-.28-.21-.52-.15-.71,.17-18.57,4.5-33.22,15.12-45.52,29.34-2.68,3.09-5.09,6.41-7.63,9.63-1.78-.32-2.73-1.24-1.73-3.01,.47-.84,.79-1.73,.02-2.13-6.14-3.12-.02-4.65,1.31-6.14,.3,.35,.19-.27-.12-.39-.85-.34-.32,.48-.31,.61,.02,.42,.22,.84,.35,1.25,.16-.23,.33-.46,.08-1.47-.37-4.52-.13-8.28,3.49-10.7,.86,0,1.76,.08,2.06-1.03,0,0-.05,.05-.05,.05,2.77-1.37,4.4-3.98,6.52-6.04,12.65-12.3,26.44-22.77,43.92-27.24,4.86-1.24,9.82-2.12,15.83-3.39-10.52-1.56-19.59-.36-28.5,2.73-10.26,3.55-18.44,10.32-26.74,16.93,.18-2.33-2.14-2.71-3.49-4.4,5.11-.73,6.31-4.74,7.41-8.63,.44-1.53,.38-2.72,2.48-2.95,3.33-.36,9.85-7.27,10.27-10.48,3.6,2.69,7.45,2.2,9.45-3.14,1.62-4.33,5-5.78,7.86-6.73,3.16-1.06,5.8-4.01,9.47-3.37,1.84,.32,1.87-1.78,3.11-2.02,1.23-.24,1.55-3.18,3.49-1.16-2.33,3.17-4.78,6.25-6.92,9.53-.95,1.45-3.13,3.36-.67,5.07,2.15,1.49,3.12-.92,4.26-2.18,3.55-3.9,7.27-7.57,12.23-9.68,1.2,6.02,6.88,7.19,11.1,9.55,1.89,1.05,2.86,2.36,4.05,3.78Zm-11.11-4.18c.05,1.29,.71,1.96,2,2,.14,1.25-.31,3.23,1.42,3.14,1.15-.06,1.66-1.78,1-3.3-1.03-2.36-1.62,.03-2.41,.16-.04-1.3-.71-1.96-2-2-.48-.83-.9-1.79-2.12-1.55-.18,.03-.45,.53-.38,.7,.48,1.21,1.61,.7,2.5,.86Z"/>
    <path class="cls-14" d="M165.62,235.37c4.69,2,4.18,7.33,6.87,10.74,6.23,7.88,10.81,17.17,20.08,22.3h0c3.91,3.57,8.63,5.75,13.67,6.92,2.38,.56,5.57,1.03,6.85,2.14,6.31,5.47,14.03,1.44,20.69,3.84,1.64,.59,1.71-2.59,4.33-2.9,5.01-.6,10.71-.1,14.92-2.99,6.43-4.43,13.5-8.15,18.64-14.33,5.81-6.97,9.64-14.6,8.9-24.01-.32-4.07,.77-8.11,.07-12.26-.42-2.48-.5-4.91-2.14-6.98-.4-.5-.91-1.22-.82-1.75,1.84-11-6.73-19.13-7.99-29.28-.87-7.01-3.17-13.58-.3-21.12,1.66-4.37,2.9-9.53,3.58-14.5,.06-.47-.05-1.35,.07-1.38,3.45-.85,4.72-3.86,6.5-6.38,.14,.08,.27,.16,.41,.24-.14-.08-.28-.15-.42-.23,2.03-1.03,3.38-.47,2.99,1.43-1.2,5.95,.66,12.12-1.77,18.05-1.15,2.81,2.39,7.54,4.81,7.5,.68,7.26,3.43,14.05,4.7,21.18-.05,.11-.16,.25-.13,.31,.1,.2,.25,.37,.39,.55-.04,.65-.08,1.3-.12,1.95-3.79,.2-6.52-3.05-10.04-3.26-3.28-.19-.57-3.81-3.34-4.29,.22,6.6-.09,13.15,3.11,19.11,1.79,3.34,2.15,7.29,4.64,10.29,.2,.24,.42,.83,.37,.86-5.39,3.47,0,7.64-.72,11.43-.8,4.23,.93,8.4,1.08,12.39,.13,3.45-1.47,7.94-3.07,11.26-.98,2.04-1.09,3.76-1.23,5.59-.31,4.05-5.11,5.95-4.68,10.26-1.38,1.1-2.75,2.2-4.13,3.3-7.09-.43-11.59,4.61-16.85,8.03h0c-.34-.68-.67-.68-1,0h0c-1.3,.03-1.97,.69-2,2h0c-5,.63-10.01,1.12-15.07,.9-.28-.01-.61,1.37-.92,2.1,0,0,0,0,0,0-4.09,1.11-8.36-1.26-12.61,1.48-2.58,1.66-4.67-1.82-6.54-3.88-1.29,1.1-1.28,3.19-3.13,3.56-4.29-2.43-9.33-.3-13.7-2.23-2.39-4.84-4.1-10.44-11-10.48-2.71-.02-.68-2.38-1.84-3.33-3.84-3.12-6.52-7.59-11.01-9.91-3.8-1.96-3.13-6.16-5.05-9.04-.73-1.09-.13-3.28-2.65-1.96-.72,.37-1.29-.62-1.23-1.16,.46-4.26-3.04-7.78-2.17-12.09Z"/>
    <path class="cls-11" d="M419.43,148.63c2.01,1.28,4.03,2.57,6.04,3.85,.77,6.96,6.01,10.35,10.99,14.06,2.81,2.09,7.49,2.32,7.64,7.24-6.06-3.38-12.02-6.98-18.53-9.48-2.06-1.18-4.12-2.37-6.18-3.55-.09-.88,1.87-1.92-.1-2.63-2.83-1.02-3.03-4.15-2.09-5.34,1.95-2.47-.58-3.47-.73-5.14,.99,.33,1.98,.66,2.97,.99Z"/>
    <path class="cls-14" d="M416.46,147.64c.15,1.67,2.69,2.67,.73,5.14-.94,1.19-.74,4.31,2.09,5.34,1.97,.71,0,1.75,.1,2.63-1.63-.44-3.27-.87-4.9-1.3-1.66-.73-3.32-1.47-4.98-2.2,.33-.93,.66-1.86,.99-2.8,.38-.36,1.28-.57,.37-1.3-.12,.43-.25,.86-.37,1.29-2.22-.33-2.52-1.76-1.21-3.09,2.25-2.3,1.31-4.4,.19-6.63,2.33,.98,4.66,1.95,6.99,2.93Z"/>
    <path class="cls-14" d="M404.49,137.55c.81-1.75,1.63-3.5,2.45-5.28,1.91,1.19,.49,2.72,.56,4.07-.3,.46-.6,.92-.89,1.38-.71-.06-1.41-.12-2.12-.18Z"/>
    <path class="cls-12" d="M406.61,137.72c.3-.46,.6-.92,.89-1.38,.62,.05,1.25,.11,1.87,.16,.06,.28,.12,.57,.15,.86-.83,1.26-1.8,1.44-2.92,.36Z"/>
    <path class="cls-12" d="M296.57,190.35c.54,.92,.69,1.88,.32,2.89-.11-.96-.21-1.93-.32-2.89Z"/>
    <path class="cls-12" d="M413.52,137.45c.87-.6,1.79-.79,2.8-.38-.93,.13-1.87,.26-2.8,.38Z"/>
    <path class="cls-12" d="M295.55,213.39c-.35-.2-.42-.45-.22-.77,.15,.24,.22,.49,.22,.77Z"/>
    <path class="cls-12" d="M303.65,211.69l.14,.35s-.28,.3-.28,.3c0-.23,.04-.44,.14-.65Z"/>
    <path class="cls-12" d="M290.52,192.47c-.13-.18-.29-.35-.39-.55-.03-.07,.08-.21,.13-.31,.19,.26,.27,.55,.26,.87Z"/>
    <path class="cls-12" d="M367.52,146.45c-.28,.09-.56,.18-.84,.27,.25-.19,.53-.28,.84-.27Z"/>
    <path class="cls-12" d="M377.45,144.42l-.3,.26s-.34-.16-.34-.16c.21-.08,.42-.12,.64-.1Z"/>
    <path class="cls-12" d="M383.75,143.55c-.36,.08-.73,.15-1.09,.22,.36-.08,.73-.15,1.09-.22Z"/>
    <path class="cls-12" d="M395.55,142.47c-.41,.02-.82,.04-1.22,.06,.41-.02,.82-.04,1.22-.06Z"/>
    <path class="cls-12" d="M364.56,143.46c.19-.32,.43-.38,.71-.17-.22,.12-.46,.18-.71,.17Z"/>
    <path class="cls-12" d="M368.57,142.46l.31-.27s.36,.14,.36,.14c-.21,.1-.43,.14-.67,.13Z"/>
    <polygon class="cls-12" points="301.67 222.65 301.82 222.86 301.55 222.97 301.67 222.65"/>
    <path class="cls-5" d="M444.1,173.78c-.15-4.92-4.83-5.15-7.64-7.24-4.98-3.7-10.22-7.1-10.99-14.06,8.53,4.08,15.97,9.89,22.97,16.02,12.24,10.72,23.52,22.44,29.03,38.33,3.2,9.24,5.58,18.67,5,28.6-.91-.46-1.73-.99-1.75-2.17-.11-6.95-2.24-13.5-4.65-19.84-.9-2.36-1.34-5.86-4.73-6.85,0,0,.07-.04,.07-.04-.26-.38-.52-.76-.78-1.14-.12-.26-.19-.53-.21-.82-.26-.38-.52-.76-.78-1.14-.47-1.39-.63-3-1.46-4.13-5.93-8.12-11.87-16.24-19.95-22.46,.1-2.82-1.79-3.11-3.93-3.09l-.22,.04Z"/>
    <path class="cls-11" d="M471.34,206.56c3.39,.98,3.84,4.48,4.74,6.85,2.41,6.34,4.54,12.9,4.65,19.84,.02,1.18,.84,1.71,1.75,2.17,0,1.33,.02,2.67,.02,4-1.05,.66-1.06,1.32-.01,1.99,0,.67-.02,1.33-.03,2-2.63,3.07-2.94,7.27-.66,9-.11,.67-.21,1.34-.32,2-.77,.15-2.12,.12-2.23,.48-1.37,4.37-3.86,3.09-6.48,1.43-.83-3.93-1.66-7.86-2.49-11.79,1.82,.2,3.65,.39,5.47,.59,1.07-1.49,.54-3.22,.7-4.84,1.08-11.66-1.47-22.77-5.11-33.72Z"/>
    <path class="cls-5" d="M472.77,256.32c2.62,1.66,5.11,2.94,6.48-1.43,.11-.36,1.46-.33,2.23-.48-.68,9.77-3.88,18.84-7.52,27.8-.16-8.7-.06-17.32-1.19-25.89Z"/>
    <path class="cls-5" d="M481.8,252.41c-2.28-1.73-1.97-5.93,.66-9,.11,3.02,.54,6.07-.66,9Z"/>
    <path class="cls-5" d="M482.49,241.42c-1.04-.67-1.04-1.33,.01-1.99,0,.66,0,1.33-.01,1.99Z"/>
    <path class="cls-11" d="M469.67,243.41c.23,.39,.45,.78,.68,1.17-.61-.17-.84-.56-.68-1.17Z"/>
    <path class="cls-5" d="M401.37,303.44c-3.6-3.28-2.96-8.23-4.48-12.3-1.36-3.67-2.11-7.61-4.35-10.91-7.3-10.77-15.02-21.33-25.8-28.79-5.56-3.85-8.51-8.69-10.32-14.73,24.82,14.55,42.53,34.1,45.1,64.27,.07,.81-.1,1.65-.16,2.47Z"/>
    <path class="cls-5" d="M391.63,331.35c2.28-1.65,4.56-3.3,6.83-4.95-1.11,7.77-4.57,14.57-8.82,22.45,.76-6.71,1.37-12.1,1.98-17.49Z"/>
    <path class="cls-5" d="M401.22,311.4c-1.09-1.69-1.13-3.36,.11-5.01,.39,1.68,.3,3.35-.11,5.01Z"/>
    <path class="cls-5" d="M400.58,315.41c-1.54-1.12-.78-1.69,.52-2.12,.29,.82,.21,1.55-.52,2.12Z"/>
    <path class="cls-5" d="M398.85,324.82c.16-.48,.33-.96,.49-1.44-.16,.48-.33,.96-.49,1.44Z"/>
    <path class="cls-8" d="M288.91,.86c-.34,.09-.69,.18-1.03,.27,.03-.38,.06-.76,.09-1.14,.31,.29,.63,.57,.94,.86Z"/>
    <path class="cls-12" d="M252.57,417.51c3.34-.24,6.51-1.21,9.69-2.19,1.12-.35,2.39-.52,3.17,.65,.78,1.17,.16,2.18-.66,3.12-18.12,20.87-49.2,36.57-79.94,23.18-4.45-1.94-8.57-4.4-11.81-8.11-.75-.86-1.27-2.14-2.74-1.54-6.73,2.72-13.4,.62-20.09-.21,0,0-.15-.04-.15-.04-.9-1.12-2.12-1.26-3.43-1.13h.11c-.08-.13-.13-.37-.25-.41-15.44-6.01-22.99-18.08-25.21-33.78-1.68-11.94-6.55-22.99-8.98-34.67-1.79-8.6-1.15-17.25,2.23-25.5,1.82-4.46,4.55-8.17,9.44-9.62,1.65-.49,2.46-1.32,2.54-3.13,.17-3.76,2.33-6.62,5.03-8.88,12.05-10.07,25.47-14.73,41.22-10.23,11.53,3.3,21.57,9.47,31.48,15.93,13.51,8.81,26.8,17.97,42.51,22.73,11.59,3.51,22.9,3.7,34.05-1.46,1.19-.55,2.4-1.53,3.68-.44,1.45,1.23,.68,2.7,.19,4.13-3.71,10.77-17.19,19.79-30.78,20.48-2.97,.15-5.95,.02-8.91,.26,10.56,3.62,20.56,.79,30.42-2.8,10.67-3.88,20.68-9.13,30.28-15.17,1.48-.93,3.14-2.68,4.85-.86,1.81,1.92-.34,3.37-1.32,4.7-10,13.53-21.31,25.44-38.68,30.17,.85,.65,1.27,1.23,1.58,1.17,11.65-2.01,23.19-4.33,33.19-11.29,1.39-.97,2.97-3.66,4.98-1.25,1.72,2.06-.53,3.7-1.63,5.19-5.48,7.44-12.22,13.65-19.59,19.13-12.52,9.31-26.02,16.69-41.44,20.04-1.94,.42-3.95,.52-5.92,.77-1.32-.05-2.65-.22-3.96-.13-1.08,.07-2.37-.58-3.4,.97,6.22,.06,12.18,2.4,18.26,.2Zm44.48-58.83c-15.19,7.57-30.37,15.16-48.71,13.65,4.46,8.19,6.12,16.38,2.79,24.8-3.42,8.67-10.75,12.58-19.63,14.25,18.7,5.11,55.15-15.14,65.12-29.29-11.16,4.05-22.25,5.87-33.41,7.39-1.51,.21-3.2,2.12-4.44,.09-1.29-2.11,.46-3.78,1.75-5.25,3.79-4.34,9.22-5.82,14.3-7.77,9.24-3.55,16.81-9.24,22.82-17.06,.48-.15,.93-.41,.6-.94-.09-.15-.78,.07-1.2,.12Zm-18.09-10.71c-24.26,6.6-44-2.23-62.92-14.38-6.02-3.87-11.97-7.82-18-11.67-7.58-4.84-15.5-8.99-24-12.05-14.69-5.29-27.45-1.17-39.1,7.96-3.03,2.38-5.51,5.37-3.55,9.91,.87,2.02-.47,3.27-2.49,3.21-6.14-.17-8.88,3.9-10.79,8.72-2.37,5.98-3.12,12.29-2.13,18.64,2.92,18.73,12.75,34.13,24.54,48.26,6.07,7.27,21.79,9.41,29.78,5.37,2.46-1.24,4.15-2.46,2.2-5.61-1.59-2.56-2.13-5.57-1.99-8.64,.07-1.47-.22-3.23,1.94-3.4,2.2-.16,2.15,1.46,2.24,3.04,.54,9.88,6.66,16.04,14.43,20.79,5.95,3.64,11.36,2.47,16.05-2.73,6.53-7.23,7.06-17.29,1.29-25.16-2.95-4.03-5.94-8.02-8.91-12.04-.92-1.24-1.85-2.56-.32-3.93,1.68-1.51,2.72,.1,3.76,1.04,4.12,3.7,7.73,7.88,10.11,12.89,2.1,4.43,5,8.25,8.15,11.89,8.79,10.19,23.81,7.23,28.27-5.5,4.06-11.6-4.12-27.14-16.22-30.94-5.38-1.69-10.72-3.52-16.07-5.33-1.56-.53-3.47-1.1-2.69-3.36,.64-1.87,2.31-1.45,3.83-1.17,5.24,.98,10.5,2.07,15.21,4.6,6.58,3.53,13.63,4.33,20.81,3.84,10.49-.71,19.53-4.53,26.56-14.26Zm-153.48,45.45c-.09,4.62,1.08,7.74,2.04,10.89,4.85,15.85,20.89,26.62,37.36,25.17,3.34-.29,6.04-.95,6.77-5.05,.48-2.72,2.68-4.45,5.35-5.47,1.35-.51,2.28-.12,3.03,.9,.71,.96,.35,1.7-.49,2.55-5.97,6.08-5.53,8.79,2.01,13.19,13.21,7.71,27.35,9.03,41.91,5.37,12.55-3.16,23.19-9.89,32.87-19.37-4.13,.24-7.44,.66-10.75,.58-10.51-.25-20.81-2.11-31.03-4.45-2.33-.53-4.46-1.24-6.84,.98-7.75,7.24-14.59,7.56-23.31,1.51-2.17-1.51-4.18-3.32-5.98-5.25-1.41-1.51-2.37-1.53-4.17-.54-13.6,7.42-31.4,3.44-40.55-9-2.63-3.57-5.02-7.32-8.22-12.01Zm89.44,8.38c-.54,6.95,4.3,9.92,14.38,9.05-5.84-1.18-10.38-4.46-14.38-9.05Z"/>
    <path class="cls-4" d="M25.73,340.18c-8.47-27.99-3.26-54.27,9.91-79.56,1.21-2.32,1.12-5.21,3.16-7.15,6.08-5.46,10-12.72,15.56-18.63,4.65-4.94,8.86-10.29,13.27-15.46,.37,.38,.74,.75,1.11,1.13-7.85,10.31-16.15,20.32-23.44,31.01-13.1,19.22-19.39,40.74-18.52,64.03,.71,18.98,7.77,36.05,17.3,52.26-2.07-11.91-2.93-23.8,.59-35.46,6.87-22.72,19.92-39.75,44.25-45.45,8.91-2.09,16.58-.36,22.21,8.05,5.63,8.39,16.51,10.73,23.58,5.9,5.19-3.54,8.14-12.21,6.55-19.24-.29-1.3-.64-2.58-.97-3.87,.12-.15,.24-.29,.38-.43,4.15,5.91,3.76,14.7-.96,21.4-4.2,5.97-11.15,8.44-18.55,6.29-4.95-1.43-9.31-3.66-12.27-8.39-4.23-6.75-10.68-8.48-18.27-6.8-18.46,4.07-30.16,16.03-37.85,32.54-5.04,10.83-6.39,22.29-4.89,34.95,2.47-6.86,3.78-13.35,6.87-19.18,2.66-5.02,5.51-9.87,9.59-13.91,12.64-12.53,32.02-8.71,38.88,7.75,1.01,2.43,1.91,5.03,2.21,7.63,1.81,15.74-8.08,21.47-21.06,20.33-6.15-.54-12.03-2.41-17.42-5.63-3.48-2.08-6.68-1.29-8.39,2.31-3.62,7.63-7.78,15.73-4.2,24.13,4.78,11.21,13.21,19.29,25.76,21.33,5.64,.91,10.34-2.01,13.53-6.81,2.94-4.42,2.16-8.93-.31-13.21-1.76-3.06-4.46-4.88-8.2-4.73-3.6,.15-6.53,1.27-7.7,5.08-.56,0-1.12-.02-1.68-.02,2.23-7.63,10.47-10.32,16.92-5.54,5.87,4.35,8.07,12,5.36,18.62-3.02,7.37-11.25,12.36-18.66,11.33-13.09-1.83-22.31-9.53-28.3-20.59-4.13-7.62-8.97-14.69-13.56-21.97-4.8-7.6-8.23-15.86-11.84-24.05Zm25.42,31.97c.95-5.28,1.44-9.77,2.61-14.07,2.21-8.11,8.33-11.06,15.94-7.77,6.19,2.67,12.48,4.4,19.31,4.26,9.98-.2,13.09-6.6,12.19-15.43-.21-2.11-1.04-4.21-1.88-6.19-5.62-13.36-20.29-17.16-31.63-8.29-4.69,3.66-8.45,8.17-10.91,13.47-4.89,10.54-10.08,21.16-5.64,34.01Z"/>
    <path class="cls-4" d="M125.73,147.31c7.85,10.42,12.29,22.32,15.28,34.87,3.66,15.39,3.05,30.74-.98,45.9-5.18,19.51-17.3,32.87-36.3,40.13-10.09,3.86-20.07,8.09-29.81,12.75-14.37,6.88-22.42,19.38-28.22,33.61-1.17,2.87-2.31,5.75-3.76,9.38-.46-6.28,3.86-18.29,8.36-26.6,7.1-13.1,18.71-20.41,31.84-25.95,7.35-3.1,14.62-6.44,22.11-9.17,21.01-7.65,30.75-23.91,34.29-44.72,3.84-22.59,.1-44.04-10.89-64.2-.95-1.74-1.63-3.62-2.43-5.45,.16-.2,.32-.38,.49-.56Z"/>
    <path class="cls-4" d="M38.05,323.26c-.75-15.11,4.27-28.36,12.76-40.56,9.16-13.16,20.31-24.12,34.17-32.35,4.99-2.96,9.63-6.56,14.23-10.11,12.29-9.48,17.18-22.89,19.39-37.57,1.99-13.24,2.63-26.41-3.65-38.99,5.25,5.94,6.93,13.26,7.33,20.59,.75,13.54-1.02,26.84-6,39.63-4.64,11.93-13.72,19.93-23.81,26.86-12.56,8.62-24.21,18.12-33.95,29.93-10.33,12.54-18.11,26.19-20.47,42.57Z"/>
    <path class="cls-4" d="M85.83,153.22c6.83,6.52,8.82,15.21,9.52,23.95,1.53,19.18-4.13,36.47-15.75,51.75-11.57,15.21-24.04,29.76-33.25,46.68-7.9,14.53-12.83,29.87-14.06,46.27-1.91-3.62-1.75-9.3-.31-18.87,3.52-23.47,15.74-42.38,30.59-60.08,8.1-9.66,17.05-18.73,22.63-30.29,8.2-16.99,11.19-34.34,3.55-52.39-.96-2.28-2.18-4.45-3.28-6.67l.34-.33Z"/>
    <path class="cls-4" d="M200.57,283.34c4.37,1.94,9.41-.2,13.7,2.23,4.46,1.77,8.97,3.44,12.9,6.32,5.75,4.23,7.39,11.73,3.98,18.28-3.41,6.55-10.82,10.16-16.94,8.25-6.99-2.18-10.19-8.22-8.17-15.87,.33,2.37,.24,4.63,.99,6.56,1.72,4.39,5.15,6.98,9.93,7.09,4.6,.1,9.49-3.91,11.08-8.79,1.5-4.59,.58-8.5-3.47-11.48-5.55-4.08-11.96-6.01-18.63-6.38-27.96-1.56-50.51-25.27-55.36-52.72-.37-2.11-.47-4.27-.7-6.41,.5,0,1,0,1.49,0,4.66,22.19,16.25,39.22,36.94,49.36,3.83,1.88,7.8,3.68,12.27,3.55Z"/>
    <path class="cls-4" d="M272.4,271.38c1.38-1.1,2.75-2.2,4.13-3.3,17.34-12.42,35.8-14.36,55.27-5.68,4.34,1.93,8.63,4.15,11.72,8.02h0c-1.06,.31-1.92-.17-2.82-.63-28.36-14.61-55.44-8.8-75.59,16.11-3.86,4.78-7.64,9.6-11.01,15.9-.84-2.8,.26-4.32,.89-5.73,3.44-7.66,8.24-14.41,13.97-20.53,1.22-1.31,2.93-2.25,3.46-4.15Z"/>
    <path class="cls-4" d="M141.59,460.35c1.49,.01,2.99,.09,4.47,.02,2.83-.14,5.09-1.62,5.18-4.38,.1-3.05-1.09-6.06-4.77-6.58-2.12-.3-4.31-.12-6.47-.02-10.17,.49-20.18-.43-30.13-2.74-14.4-3.35-25.09-12.39-35.4-22.15,.41-.43,.82-.86,1.23-1.28,4.93,3.67,9.78,7.45,14.79,10.99,10.3,7.29,22.18,9.48,34.43,10.03,6.64,.3,13.31-.1,19.96,.03,5.9,.11,10.08,4.17,10.33,9.98,.13,3.15-.91,6.16-3.99,7.44-3.29,1.38-6.78,1.68-9.64-1.32h.01Z"/>
    <path class="cls-14" d="M288.53,309.41c-2.09-1.44-2.16-3.57-1.97-5.79,4.22-1.39,8.59-1.27,12.95-1.29,9.37,1.36,18.41,3.69,26.3,9.26,9.08,6.41,11.42,11.98,8.81,20.89-.93,1.55-2.5,2.12-4.09,2.64-.74-7.34-4.8-13.06-9.06-18.7-9.95-7.2-20.93-9.54-32.95-7Z"/>
    <path class="cls-4" d="M265.2,332.19c11.15-13.37,32.34-16.32,45.1-7.27,12.09,8.57,17.37,28.59,10.27,41.11,.97-15.33-.88-29.17-14.72-37.7-13.7-8.45-26.77-2.52-40.64,3.87Z"/>
    <path class="cls-4" d="M175.82,443.11c10.93,7.03,21.98,13.86,35.02,16.25,12.88,2.36,25.52,2.62,36.88-5.5,.32-.23,.87-.14,2.68-.37-5.14,6.04-10.64,9.47-17.11,10.84-17.84,3.77-33.93-.74-48.48-11.33-3.61-2.63-7.28-5.27-9.68-9.2,.24-.22,.47-.45,.7-.69Z"/>
    <path class="cls-4" d="M409.51,157.24c1.66,.73,3.32,1.47,4.98,2.2,.04,1.44,.07,2.87,.11,4.31-8.65-2.26-17.25-4.87-26.26-5.18-15.66-.54-30.17,3.47-43.64,11.41-.99,.58-2.04,1.06-3.07,1.59-.16-.19-.32-.39-.47-.59,9.14-9.34,20.71-13.92,33.17-16.49,11.93-2.46,23.67-.95,35.18,2.75Z"/>
    <path class="cls-4" d="M195.6,301.01c-26.96,1.7-54.46-26.1-53.34-53.57,3.14,13.03,8.43,24.69,18.92,33.58,10.09,8.56,21.5,14.7,34.42,19.99Z"/>
    <path class="cls-4" d="M288.53,309.41c12.02-2.53,23-.2,32.95,7-1.73,2.11-3.39,.1-4.91-.26-13.86-3.31-27.65-3.72-41.09,1.54-4.59,1.8-8.87,4.6-12.95,7.42-5.98,4.14-12.5,5.94-19.71,5.94-.16-.93,.7-1.1,1.08-1.1,8.57-.1,15.01-4.87,21.35-9.75,6.96-5.37,14.69-8.97,23.28-10.79Z"/>
    <path class="cls-4" d="M78.69,420.81c5.81,1.96,11.6,3.96,17.42,5.88,3.56,1.18,7.26,1.01,10.85,.4,7.76-1.32,10.16-4.66,9.76-12.87-.36-7.27-2.59-9.43-10.5-10.16,3.92-3.68,8.21-3.57,11.83,.7,4,4.72,5.44,10.24,3.49,16.27-1.81,5.62-6.03,8.3-11.65,9.6-5.61,1.29-10.95,.5-16.1-1.45-5.41-2.05-10.7-4.45-15.62-7.56,.29-.19,.47-.46,.52-.81Z"/>
    <path class="cls-4" d="M341.45,239.63c2.01,.99,4.01,1.97,6.02,2.95,.01,1.29,.03,2.59,.04,3.88-19.05-6.63-38.36-6.56-58.29-1.87,4.76-4.15,15.43-7.64,23.71-8.23,9.73-.69,19.21,.55,28.53,3.26Z"/>
    <path class="cls-4" d="M150.04,432.38s.15,.04,.15,.04c10.24,6.08,16.03,15.3,19.79,26.42,2.51,7.44,8.83,10.9,16.6,11.54l-.05-.07c-5.37,2.11-12.15-.09-16.53-5.41-2.14-2.59-3.34-5.66-4.62-8.74-4.4-10.63-10.54-19.53-22.73-22.4-3.56-.84-6.85,.77-10.82,.59,4.7-4.32,10.03-2.57,14.9-3.1,0,0-.11-.01-.11-.01,.81,1.38,2.12,1.27,3.43,1.13Z"/>
    <path class="cls-4" d="M279.73,300.52c.91-.16,1.82-.32,2.73-.47,.54,1.37,1.31,2.68,1.04,4.25-10.51,3.5-19.51,9.89-29.09,15.19-5.31,2.94-10.88,5.38-17.19,5.59,15.74-5.55,27.1-18.56,42.51-24.56Z"/>
    <path class="cls-4" d="M267.37,428.04c13.03-6.04,24.73-12.31,29.69-27.45,1.15,12.13-13.71,32.21-29.69,27.45Z"/>
    <path class="cls-14" d="M199.66,481.93c.63,0,1.19,.09,1.7,.25,.01,0,.02,0,.04,0,.38-2.6,.63-5.2,.08-7.81-2,2.67-4.56,4.97-6.42,7.74,1.55-.08,3.09-.16,4.61-.17Z"/>
    <path class="cls-4" d="M239.39,314.9c4.37-9.47,6.77-19.46,8.43-30.07,5.79,10.38,2.19,23.32-8.43,30.07Z"/>
    <path class="cls-4" d="M99.68,297.48c-.76,2.52-2.88,4.59-2.8,7.35,.1,3.35,.55,6.76,4.02,8.49,4.41,2.21,7.46-.29,10.84-4.2-.85,5.39-3.96,6.83-7.7,7.25-4.79,.53-8.99-2.42-10.24-6.9-1.46-5.22,.64-9.74,5.68-12.19l.2,.2Z"/>
    <path class="cls-9" d="M283.5,304.29c.27-1.57-.5-2.88-1.04-4.25,2.04-.69,4.08-1.37,6.12-2.06,1.98-.16,3.96-.32,5.94-.47,.1,3.22,4.75,1.74,4.99,4.82-4.36,.03-8.73-.1-12.95,1.29-1.02,.22-2.04,.45-3.06,.67Z"/>
    <path class="cls-9" d="M68.75,220.51c-.37-.38-.74-.75-1.11-1.13,6.4-7.81,8.25-17.05,8.38-26.84,1.29,10.3,.12,19.94-7.27,27.97Z"/>
    <path class="cls-14" d="M28.59,364.37c-3.87-2.74-4.71-6.57-3.96-10.98,5.03,1.7,7.31,8.03,3.96,10.98Z"/>
    <path class="cls-14" d="M32.62,374.4c-2.49,1.89-2.34-.92-2.73-1.8-.85-1.92-1.6-3.98-1.3-6.19,1.59-.6,3.63-2.19,4.61,.11,.64,1.51,3.29,3.8-.14,5.59-.43,.23-.31,1.5-.45,2.29Z"/>
    <path class="cls-9" d="M75.7,423.21c-.41,.43-.82,.86-1.23,1.28-2.96-2.73-6.2-5.21-8.06-8.94,.16-.16,.33-.31,.49-.47,3.93,1.91,7.86,3.82,11.79,5.73-.05,.34-.23,.61-.52,.8-1.22-.33-2.44-.67-4.28-1.17,.76,1.16,1.29,1.96,1.82,2.77Z"/>
    <path class="cls-9" d="M347.5,246.47c-.01-1.29-.02-2.59-.04-3.88,1.02,.3,2.04,.6,3.06,.9,1.35,.94,2.71,1.88,4.06,2.83,0,1.13,.02,2.26,.02,3.39-2.3-.79-4.59-1.59-6.89-2.38-.09-.28-.16-.56-.22-.85Z"/>
    <path class="cls-4" d="M330.53,335.12c1.6-.52,3.16-1.09,4.09-2.64,.96-.01,1.93-.02,2.89-.04-.24,1.91-2.61,2.15-3.07,3.88-4.04,1.56-7.92,2.08-11.07-1.8,.23-.18,.45-.37,.67-.55,2.16,.39,4.1,2.01,6.48,1.15Z"/>
    <path class="cls-5" d="M252.57,417.51c-6.08,2.2-12.04-.14-18.26-.2,1.03-1.54,2.32-.9,3.4-.97,1.31-.09,2.64,.08,3.96,.13,3.48,1.97,7.31,.24,10.9,1.04Z"/>
    <path class="cls-10" d="M106.69,136.15h-7.83c2.73-1.86,5.58-2.22,8.59-.69-.25,.23-.5,.46-.75,.69Z"/>
    <path class="cls-9" d="M151.36,230.43c-.5,0-1,0-1.49,0,0-2.92,0-5.83,0-8.75l.38-.05c.37,2.93,.74,5.86,1.12,8.8Z"/>
    <path class="cls-4" d="M118.55,140.5c-2.47-1.08-5.2-1.74-6.91-4.1,0,0-.05,.07-.05,.07,2.88,.35,5.59,1,7.12,3.85,0,0-.15,.18-.15,.18Z"/>
    <path class="cls-9" d="M131.62,273.05c-1.99,.47-3.99,.94-5.98,1.41,0,0-.1-.1-.1-.1,1.38-2.42,3.54-2.94,6.1-2.53,0,.41,0,.81,0,1.22Z"/>
    <path class="cls-4" d="M131.62,273.05c0-.41,0-.82,0-1.22,2.26,.25,4.54,.44,6.03,2.52l-.31,.27c-1.91-.52-3.82-1.04-5.73-1.57Z"/>
    <path class="cls-9" d="M123.62,276.43c.17,1.84-.36,3.49-1.71,5.93-.47-2.91,.25-4.53,1.66-5.98,0,0,.04,.04,.04,.04Z"/>
    <path class="cls-14" d="M282.45,195.4c-.06,.64-.04,1.42-.92,1.42-.88,0-.9-.78-.9-1.42,0-.64,.03-1.42,.9-1.42,.86,0,.87,.78,.92,1.42Z"/>
    <path class="cls-4" d="M137.65,274.34c1.68,.3,2.63,1.35,3.04,2.96-.13,.13-.25,.27-.38,.43-1.42-.63-2.51-1.57-2.97-3.12,0,0,.3-.27,.3-.27Z"/>
    <path class="cls-9" d="M75.8,382.37c.56,0,1.12,.02,1.68,.02-.07,1.18,.59,2.43-.34,3.57-1.67-.77-1.57-2.16-1.34-3.59Z"/>
    <path class="cls-14" d="M419.75,180.04c-1.13,.52-2.46,.67-2.67-.4-.29-1.49,.95-.82,1.62-.53,.38,.16,.66,.57,1.05,.93Z"/>
    <path class="cls-4" d="M111.58,158.46c-1.02,.06-1.41-.57-1.52-1.44-.02-.16,.37-.54,.4-.52,.72,.44,1.19,1.04,1.15,1.94l-.02,.02Z"/>
    <path class="cls-4" d="M106.69,136.15c.25-.23,.5-.46,.75-.69,1.44,.09,3.03-.41,4.15,1.01,0,0,.05-.07,.05-.07-1.65-.08-3.3-.17-4.95-.25Z"/>
    <path class="cls-4" d="M321.57,330.36c-1.67-1.01-.67-2.45-.28-3.77,.07,1.27,.14,2.55,.22,3.82l.07-.05Z"/>
    <path class="cls-14" d="M417.13,175.19c-.12,.28-.18,.7-.38,.78-.2,.08-.53-.19-.81-.31,.12-.28,.18-.71,.37-.78,.2-.08,.54,.19,.81,.31Z"/>
    <path class="cls-14" d="M394.5,174.44v-3.26c1.56,1.44,.93,2.37,0,3.26,0,0,0,0,0,0Z"/>
    <path class="cls-4" d="M114.43,161.73c-.34,.17-.73,.44-.78,.38-.3-.32-.53-.71-.78-1.08,.24-.12,.6-.39,.68-.33,.33,.28,.58,.66,.88,1.03Z"/>
    <path class="cls-4" d="M123.9,145.19c1.08,.3,1.62,1.07,1.82,2.12-.17,.18-.33,.37-.49,.56-.99-.46-1.64-1.19-1.78-2.31,.15-.13,.29-.25,.45-.37Z"/>
    <path class="cls-9" d="M124.6,286.39c-1.01-.35-1.45-1.15-1.84-2.15,1.62,.08,1.74,1.12,1.81,2.19l.04-.04Z"/>
    <path class="cls-14" d="M241.09,283.11c.14,.29,.36,.55,.35,.81-.01,.25-.27,.48-.42,.72-.13-.26-.36-.51-.35-.77,0-.25,.26-.49,.42-.76Z"/>
    <path class="cls-14" d="M286.92,432.77c-.24-.2-.48-.39-.71-.59,.19-.16,.36-.36,.58-.47,.06-.03,.36,.17,.35,.25-.02,.26-.14,.52-.22,.8Z"/>
    <path class="cls-14" d="M237.55,285.41c.72,.46,1.06,1.07,.78,1.92-.04,.11-.25,.17-.38,.25-.13-.72-.27-1.45-.4-2.17h0Z"/>
    <path class="cls-4" d="M186.58,470.38c.57-.61,1.16-1.09,2.4-.27-1.06,.09-1.76,.15-2.46,.21,0,0,.05,.07,.05,.07Z"/>
    <path class="cls-14" d="M356.51,304.4c.24-.53,.48-1.06,.73-1.6,.2,.13,.39,.26,.59,.39-.44,.4-.88,.81-1.31,1.21,0,0,0,0,0,0Z"/>
    <path class="cls-14" d="M252.55,281.41c.72,.13,1.45,.27,2.17,.4-.08,.13-.14,.34-.25,.38-.85,.29-1.46-.07-1.92-.77,0,0,0,0,0,0Z"/>
    <path class="cls-14" d="M348.02,173.5c.25,.15,.5,.29,.74,.44-.25,.14-.5,.39-.74,.38-.25,0-.5-.25-.74-.39,.24-.14,.49-.29,.74-.44Z"/>
    <path class="cls-4" d="M339.52,172.43c.55-.48,1.1-.96,1.65-1.45,.15,.2,.31,.39,.47,.59-.51,.76-1.21,1.06-2.11,.87h0Z"/>
    <path class="cls-9" d="M124.56,286.43c.46,.09,.92,.19,1.38,.28-.72,1-.96,.05-1.34-.33,0,0-.04,.04-.04,.04Z"/>
    <path class="cls-4" d="M321.5,330.41c.9,.29,1.04,1.08,1.17,1.86-.18,.15-.36,.3-.55,.44-.71-.66-.83-1.46-.55-2.35,0,0-.07,.05-.07,.05Z"/>
    <path class="cls-4" d="M123.46,145.56c-.77-.44-1.16-1.07-1-1.98,0,0,.16-.17,.16-.17,.42,.59,.85,1.19,1.28,1.78-.15,.12-.3,.24-.44,.37Z"/>
    <path class="cls-4" d="M323.38,334.52c-.42-.61-.83-1.21-1.25-1.81,.18-.14,.37-.28,.55-.44,.46,.57,.92,1.14,1.38,1.7-.22,.18-.44,.37-.67,.55Z"/>
    <path class="cls-4" d="M120.59,141.45c-.98,.33-1.61-.1-2.04-.95,0,0,.15-.18,.15-.18,.87-.02,1.55,.27,1.89,1.12h0Z"/>
    <path class="cls-14" d="M117.96,465.06c.13,.08,.38,.2,.36,.24-.08,.28-.16,.6-.34,.81-.37,.43-.53,.32-.36-.21,.09-.29,.22-.56,.33-.84Z"/>
    <path class="cls-4" d="M83.61,150.44c.85,.27,1.2,.9,1.24,1.75,0,0-.31,.34-.31,.34-.83-.46-1.25-1.1-.93-2.07,0,0,.01-.01,.01-.01Z"/>
    <path class="cls-4" d="M174.16,442.74c-.46-.24-1.41-.34-.88-1.05,.4-.53,1.09-.05,1.43,.54-.18,.17-.37,.34-.55,.51Z"/>
    <path class="cls-14" d="M220.36,472.92c-.46-.8-.93-1.6-1.39-2.4,1.42,.24,1.55,1.24,1.39,2.4Z"/>
    <path class="cls-12" d="M164.45,185.69c.11,.21,.16,.44,.15,.68,0,0-.28-.31-.28-.31l.13-.37Z"/>
    <path class="cls-14" d="M433.49,178.44c-.08,.14-.16,.28-.23,.41,.08-.14,.15-.28,.23-.42,0,0,0,0,0,0Z"/>
    <path class="cls-14" d="M394.5,175.43c-.68-.33-.69-.66,0-1,0,0,0,0,0,0,0,.33,0,.67,0,1,0,0,0,0,0,0Z"/>
    <path class="cls-12" d="M63.7,175.13c-.09-.21-.12-.44-.1-.66,0,0,.26,.32,.26,.32l-.16,.35Z"/>
    <path class="cls-9" d="M78.54,388.46c-.22-.2-.43-.39-.65-.59,.7-.69,.65,.08,.82,.42l-.17,.17Z"/>
    <path class="cls-4" d="M339.52,172.44c-.11,.23-.22,.46-.33,.69-.71-.62,.04-.55,.32-.7,0,0,0,0,0,0Z"/>
    <path class="cls-9" d="M78.7,388.29c.33,.33,.67,.67,1,1l-.16,.16c-.33-.33-.67-.67-1.01-1,0,0,.17-.17,.17-.17Z"/>
    <path class="cls-9" d="M79.7,389.29c.21,.15,.42,.3,.63,.45-.51,.59-.6,.03-.79-.28,0,0,.16-.16,.16-.16Z"/>
    <polygon class="cls-9" points="82.09 390.69 82.19 390.94 81.93 390.9 82.09 390.69"/>
    <path class="cls-14" d="M388.5,299.4c-.14-.08-.28-.15-.42-.23,.14,.08,.28,.15,.42,.23,0,0,0,0,0,0Z"/>
    <path class="cls-4" d="M99.48,297.28c.18-.19,.5-.57,.51-.56,.67,.55,.01,.59-.31,.76,0,0-.2-.2-.2-.2Z"/>
    <path class="cls-9" d="M63.52,411.47c-.21-.16-.41-.33-.62-.49,.59-.65,.6,.04,.77,.34,0,0-.15,.15-.15,.15Z"/>
    <path class="cls-9" d="M63.67,411.32c.21,.18,.42,.36,.63,.54-.64,.63-.62-.05-.79-.39,0,0,.15-.15,.15-.15Z"/>
    <path class="cls-9" d="M65.48,414.51c-.37-.26-.86-.51-.23-.97,.06-.04,.43,.34,.65,.53-.14,.15-.28,.29-.42,.44Z"/>
    <path class="cls-4" d="M111.61,158.43c.23,.17,.45,.35,.68,.52-.76,.58-.61-.13-.7-.5,0,0,.02-.02,.02-.02Z"/>
    <path class="cls-9" d="M65.9,414.07c.33,.34,.67,.67,1.01,1.01-.16,.15-.32,.31-.48,.47-.31-.35-.63-.69-.94-1.04,.14-.15,.28-.29,.42-.44Z"/>
    <path class="cls-14" d="M237.56,285.41c-.33-.33-.67-.66-1-.99,0,0,0,0,0,0,.33,.33,.66,.67,.99,1h0Z"/>
    <path class="cls-4" d="M85.48,153.56c-.32-.34-.63-.69-.95-1.03,0,0,.31-.33,.31-.33,.33,.34,.65,.69,.98,1.04,0,0-.34,.33-.34,.33Z"/>
    <path class="cls-4" d="M174.72,442.23c.37,.29,.73,.59,1.1,.88-.22,.24-.45,.46-.7,.69-.32-.35-.64-.71-.96-1.06,.18-.17,.37-.34,.55-.51Z"/>
    <path class="cls-14" d="M92.6,447.36c.08-.14,.15-.28,.23-.42-.08,.14-.15,.28-.23,.42h0Z"/>
    <path class="cls-4" d="M141.58,460.36c-.23-.15-.46-.3-.68-.45,.62-.48,.71-.09,.7,.44,0,0-.01,.01-.01,.01Z"/>
    <path class="cls-4" d="M82.61,149.44c.33,.33,.67,.67,1,1,0,0,0,.01-.01,.01-.71,.04-1-.33-1-1h.01Z"/>
    <path class="cls-4" d="M82.6,149.45c-.68,0-1.01-.33-.98-1.02l-.02,.03c.34,.33,.68,.66,1.01,.98,0,0-.01,.01-.01,.01Z"/>
    <path class="cls-14" d="M255.55,279.41c-.33,.68-.67,.68-1,0,0,0,0,0,0,0,.33,0,.67,0,1,0h0Z"/>
    <path class="cls-4" d="M81.62,148.43c-.68,0-1.02-.33-.97-1.03l-.06,.07c.34,.33,.67,.65,1.01,.98,0,0,.02-.03,.02-.03Z"/>
    <path class="cls-4" d="M80.65,147.4l-.75-.2c.57-.78,.5,.07,.69,.27,0,0,.06-.07,.06-.07Z"/>
    <path class="cls-9" d="M124.63,275.45c-.34,.33-.68,.66-1.02,.98,0,0-.04-.04-.04-.04,.33-.34,.65-.68,.98-1.02,0,0,.08,.08,.08,.08Z"/>
    <path class="cls-9" d="M125.64,274.46c-.34,.33-.67,.66-1,.99,0,0-.08-.08-.08-.08,.33-.34,.66-.67,.98-1.01,0,0,.1,.1,.1,.1Z"/>
    <path class="cls-4" d="M77.63,145.41c-.15-.05-.33-.07-.45-.16-.07-.05-.05-.21-.07-.32l.46,.55,.07-.07Z"/>
    <path class="cls-4" d="M121.6,142.44c.34,.32,.68,.65,1.03,.97,0,0-.16,.17-.16,.17-.65-.1-.99-.44-.88-1.13,0,0,.01-.02,.01-.02Z"/>
    <path class="cls-4" d="M120.59,141.44c.33,.33,.67,.66,1,1,0,0-.01,.01-.01,.02-.73,.05-1.06-.28-.99-1.01,0,0,0,0,0,0Z"/>
    <path class="cls-4" d="M343.52,270.41c.21,.16,.42,.31,.63,.47-.63,.42-.67,.02-.63-.46,0,0,0,0,0,0Z"/>
    <path class="cls-14" d="M358.52,260.42c-.08,.14-.16,.28-.24,.42,.07-.14,.15-.29,.22-.43,0,0,.01,.01,.01,.01Z"/>
    <path class="cls-4" d="M77.57,145.48c.25,.09,.49,.18,.74,.26-.63,.7-.5-.12-.67-.33,0,0-.07,.07-.07,.07Z"/>
    <path class="cls-12" d="M28.62,124.45c-.27,.02-.53-.04-.76-.17,.3-.22,.56-.17,.76,.17Z"/>
    <path class="cls-6" d="M311.54,393.37c.14,.08,.28,.16,.41,.23-.14-.07-.28-.15-.43-.22,0,0,.01-.01,.01-.01Z"/>
    <path class="cls-6" d="M297.53,421.37c.08-.14,.15-.28,.23-.41-.08,.14-.15,.28-.23,.41h0Z"/>
    <path class="cls-13" d="M134.68,33.51c.62,0,1.25,0,1.87-.01,1,.25,2,.5,3,.75,10.05,4.48,13.89,13.09,8.58,19.79-2.12,2.68-5.17,4.6-7.61,7.05-1.15,1.14-3.64,2.27-2.02,4.34,1.82,2.33,3.5,.03,5.07-.93,4.16-2.53,6.49-7.73,12.05-8.24,.65,0,1.3-.02,1.95-.03,6.62,2.02,10.22,7.04,9.82,13.68-.94,15.76-19.16,27.21-33.75,21.2-2.07-.85-3.45-2.56-4.99-4.06-17.38-16.98-38.34-22.43-61.88-18.62-11.26,1.82-19.7,8.4-25.92,17.85-1.08,1.64-1.72,3.71-4.26,3.56-.29-.21-.61-.25-.94-.15-7.15-1.84-13.92-4.54-19.77-9.14-6.22-4.88-7.08-14.57-1.97-20.48,4.45-5.16,12.14-4.34,15.37,1.61,.9,1.65,1.54,4.51,4.03,3.23,2.69-1.39,.9-3.94-.08-5.67-2.44-4.33-3.05-8.76-1.5-13.44,1.34-4.07,4.19-6.8,8.27-8.01,4.48-1.32,8.17,1.42,8.45,6.06,.02,.33,0,.67,.05,1,.29,2.32,.46,5.49,3.37,5.15,2.9-.33,2.28-3.61,2.13-5.8-.56-8.07,5.74-19.31,12.99-22.87,7.84-3.84,14.67,.41,14.66,9.07,0,3.57-1.12,6.86-2.23,10.18-.54,1.63-2.13,3.67,.36,4.69,2.37,.97,2.95-1.52,3.78-3.04,3.67-6.69,8.52-12.3,14.93-16.47,3.56-2.31,7.4-3.77,11.76-3.37,4.28,.4,7.76,2.2,9.57,6.18,1.73,3.8,1.09,7.29-1.82,10.56-2.44,2.74-4.12,6.06-4.76,9.76-.2,1.13-.11,2.56,.89,3.16,1.36,.8,2.07-.68,2.71-1.52,1.5-1.98,3.25-3.92,4.14-6.18,2.37-6.01,6.97-9.06,12.85-10.69,.29-.05,.57-.1,.86-.16Z"/>
    <path class="cls-13" d="M36.41,133.9c1.94-.58,2.55,.47,3.07,1.16,10.79,14.39,18.67,29.96,18.09,48.5-.35,11.12-10.35,19.12-20.62,17.13-10.01-1.94-15.84-11.94-12.6-21.62,.37-1.1,.77-2.2,1.25-3.26,6.03-13.43,13.21-26.54,10.82-41.91Z"/>
    <path class="cls-12" d="M139.55,34.24c-1-.25-2-.5-3-.75,1.08-.06,2.18-.24,3,.75Z"/>
    <path class="cls-12" d="M157.56,56.23c-.65,0-1.3,.02-1.95,.03,.64-.86,1.29-.88,1.95-.03Z"/>
    <path class="cls-12" d="M134.68,33.51c-.29,.05-.57,.11-.86,.16,.27-.14,.56-.19,.86-.16Z"/>
    <path class="cls-12" d="M35.63,89.7c.34-.11,.65-.06,.94,.15-.38,.39-.69,.28-.94-.15Z"/>
    <path class="cls-14" d="M192.57,268.41c.08-.14,.15-.28,.23-.42-.08,.14-.16,.28-.24,.41,0,0,0,0,0,0Z"/>
    <path class="cls-4" d="M327.52,142.45c8.3-6.61,16.48-13.38,26.74-16.93,8.92-3.08,17.98-4.29,28.5-2.73-6.02,1.28-10.97,2.15-15.83,3.39-17.48,4.47-31.27,14.94-43.92,27.24-2.12,2.06-3.75,4.67-6.52,6.04-.62-2.43,1.24-3.96,2.1-5.86,1.12-.71,1.86-1.69,2.1-3.02,0,0-.08,0-.08,0,.34-.36,.68-.72,1.01-1.09,0,0-.02,.05-.02,.05,1.72-1.39,3.5-2.74,3.98-5.1,.65-.66,1.29-1.33,1.94-1.99Z"/>
    <path class="cls-6" d="M325.59,144.44c-.48,2.36-2.26,3.71-3.98,5.1-.35-3.01,.12-5.37,3.98-5.1Z"/>
    <path class="cls-6" d="M320.7,150.58c-.24,1.33-.98,2.3-2.1,3.02-.06-1.53-.24-3.15,2.1-3.02Z"/>
    <path class="cls-4" d="M316.55,159.41c-.3,1.11-1.2,1.03-2.06,1.03,.41-.89,.93-1.56,2.06-1.03Z"/>
    <path class="cls-6" d="M321.63,149.5c-.34,.36-.68,.72-1.01,1.09,.34-.36,.68-.72,1.01-1.09Z"/>
    <path class="cls-14" d="M298.54,176.43c-.14-.08-.28-.15-.42-.23,.14,.08,.28,.15,.41,.23,0,0,0,0,0,0Z"/>
    <path class="cls-10" d="M380.52,272.38c2.14,0,1.91,1.69,2.16,3.03-1.52-.44-2.11-1.54-2.16-3.03Z"/>
    <path class="cls-6" d="M360.88,259.12c.13,.08,.38,.2,.36,.24-.08,.28-.16,.59-.34,.81-.37,.42-.53,.32-.36-.22,.09-.29,.22-.56,.34-.83Z"/>
    <path class="cls-11" d="M394.51,304.4c-.14-.07-.29-.15-.43-.22,.14,.08,.28,.16,.42,.23,0,0,0,0,0,0Z"/>
    <path class="cls-14" d="M357.52,320.41c-.08,.14-.16,.28-.24,.42,.08-.15,.15-.29,.23-.44,0,0,.02,.02,.02,.02Z"/>
    <path class="cls-6" d="M359.51,311.4c-.08,.14-.15,.28-.23,.42,.08-.14,.15-.28,.23-.42,0,0,0,0,0,0Z"/>
    <path class="cls-11" d="M428.47,223.44l1.27,.31c-.69,.9-.9,0-1.25-.34,0,0-.02,.03-.02,.03Z"/>
    <path class="cls-11" d="M334.51,223.43c.14,.07,.27,.15,.41,.22-.13-.08-.26-.16-.4-.23,0,0-.02,.02-.02,.02Z"/>
    <path class="cls-14" d="M392.51,113.45c.79-.13,1.37-2.51,2.41-.16,.67,1.52,.15,3.24-1,3.3-1.73,.09-1.28-1.89-1.42-3.14,0,0,0,0,0,0Z"/>
    <path class="cls-14" d="M390.5,111.46c-.88-.16-2.01,.35-2.5-.86-.07-.17,.21-.67,.38-.7,1.23-.24,1.64,.72,2.12,1.55h0Z"/>
    <path class="cls-14" d="M390.51,111.45c1.29,.04,1.96,.7,2,2,0,0,0,0,0,0-1.29-.04-1.95-.71-2-2,0,0,0,0,0,0Z"/>
    <path class="cls-14" d="M311.48,171.85c-.22,.31-.39,.53-.55,.76-.13-.42-.33-.83-.35-1.25,0-.13-.54-.95,.31-.61,.31,.12,.41,.74,.59,1.1Z"/>
    <path class="cls-6" d="M255.55,279.41c-.33,0-.67,0-1,0,.33-.68,.67-.68,1,0Z"/>
    <path class="cls-11" d="M279.53,143.45c.14,.08,.28,.15,.42,.23-.14-.08-.27-.16-.41-.24,0,0-.01,.01-.01,.01Z"/>
    <path class="cls-6" d="M410.49,154.44c.12-.43,.25-.86,.37-1.29,.92,.73,.01,.94-.37,1.3h0Z"/>
    <path class="cls-11" d="M448.24,176.82c-1.62-.64-2.99-1.59-3.92-3.09,2.13-.02,4.03,.27,3.92,3.09Z"/>
    <path class="cls-11" d="M471.41,206.52c-.26-.38-.52-.76-.78-1.14,.26,.38,.52,.76,.78,1.14Z"/>
    <path class="cls-11" d="M470.43,204.56c-.26-.38-.52-.76-.78-1.14,.26,.38,.52,.76,.78,1.14Z"/>
    <path class="cls-16" d="M278.96,347.96c-7.03,9.73-16.07,13.55-26.56,14.26-7.18,.49-14.23-.31-20.81-3.84-4.71-2.53-9.97-3.62-15.21-4.6-1.52-.28-3.19-.7-3.83,1.17-.78,2.26,1.13,2.83,2.69,3.36,5.34,1.82,10.68,3.65,16.07,5.33,12.1,3.8,20.28,19.34,16.22,30.94-4.46,12.73-19.48,15.69-28.27,5.5-3.15-3.64-6.05-7.46-8.15-11.89-2.37-5.01-5.98-9.19-10.11-12.89-1.04-.93-2.08-2.54-3.76-1.04-1.53,1.37-.6,2.68,.32,3.93,2.97,4.01,5.96,8.01,8.91,12.04,5.77,7.87,5.24,17.93-1.29,25.16-4.69,5.2-10.11,6.36-16.05,2.73-7.77-4.75-13.89-10.92-14.43-20.79-.09-1.58-.03-3.2-2.24-3.04-2.16,.16-1.88,1.93-1.94,3.4-.14,3.07,.4,6.08,1.99,8.64,1.95,3.15,.26,4.37-2.2,5.61-7.99,4.04-23.71,1.9-29.78-5.37-11.8-14.13-21.62-29.53-24.54-48.26-.99-6.36-.25-12.66,2.13-18.64,1.91-4.82,4.65-8.89,10.79-8.72,2.02,.06,3.37-1.19,2.49-3.21-1.96-4.54,.51-7.53,3.55-9.91,11.65-9.13,24.42-13.25,39.1-7.96,8.49,3.06,16.41,7.21,24,12.05,6.03,3.85,11.99,7.8,18,11.67,18.92,12.16,38.66,20.98,62.92,14.38Zm-138.72,.91c-4.68,3.34-6.01,1.53-6.53-2.31-.26-1.91-1.2-3.78-2.08-5.54-.66-1.32-1.69-2.73-3.48-1.98-1.51,.64-1.21,2.11-1.08,3.48,.23,2.48,.53,4.98,.41,7.45-.12,2.37,.46,5.33-2.4,6.55-2.96,1.26-4.41-1.3-6.11-3.03-.13-.13-.6,.08-1.13,.16,1.27,3.58,3.28,6.27,7.4,5.65,5.35-.8,4.97-5.43,5.6-9.28,4.21,3.96,5.99,3.95,9.42-1.16Zm3.81-26.86c-1.16,3.33,.18,5.51,2.64,7.02,2.94,1.8,6.25,1.82,8.99-.08,2.01-1.4,3.44-1.5,5.73-.8,4.78,1.47,9-.58,10.66-4.53-7.88,3.81-9.35,3.31-13.77-4.68-.41-.74-.95-1.58-1.87-1.31-1.68,.49-1.64,1.91-1.27,3.26,1.06,3.91-.32,6.12-4.4,6.55-3.87,.41-5.79-1.74-6.7-5.43Zm-.21,74.69c-6.84-9.15-12.35-18.9-14.86-30.11-1.37,13.05,4.06,22.88,14.86,30.11Zm11.57-59.21c-6.55,3.13-10.58,2.32-12.57-4-.67-2.14-3.44-3.05-5.52-1.71-2.51,1.61-1.83,3.89-.13,5.94,.82-1.07-.42-3.11,1.44-3.34,1.77-.22,1.73,1.59,2.22,2.78,2.68,6.47,8.66,7.15,14.57,.34Z"/>
    <path class="cls-16" d="M125.48,393.42c3.2,4.7,5.6,8.44,8.22,12.01,9.15,12.44,26.95,16.42,40.55,9,1.8-.98,2.77-.97,4.17,.54,1.8,1.93,3.81,3.75,5.98,5.25,8.72,6.05,15.55,5.73,23.31-1.51,2.38-2.22,4.5-1.52,6.84-.98,10.23,2.34,20.52,4.19,31.03,4.45,3.3,.08,6.62-.34,10.75-.58-9.69,9.48-20.32,16.21-32.87,19.37-14.56,3.66-28.7,2.34-41.91-5.37-7.54-4.4-7.98-7.1-2.01-13.19,.84-.85,1.19-1.59,.49-2.55-.75-1.02-1.68-1.41-3.03-.9-2.67,1.01-4.87,2.74-5.35,5.47-.72,4.1-3.43,4.76-6.77,5.05-16.47,1.45-32.51-9.32-37.36-25.17-.96-3.15-2.14-6.28-2.04-10.89Z"/>
    <path class="cls-4" d="M297.65,359.49c-6.02,7.82-13.58,13.51-22.82,17.06-5.08,1.95-10.5,3.43-14.3,7.77-1.29,1.48-3.04,3.14-1.75,5.25,1.24,2.03,2.93,.12,4.44-.09,11.15-1.52,22.24-3.35,33.41-7.39-9.97,14.15-46.41,34.4-65.12,29.29,8.88-1.67,16.21-5.58,19.63-14.25,3.33-8.42,1.67-16.61-2.79-24.8,18.35,1.51,33.53-6.08,48.71-13.65,.2,.27,.4,.54,.59,.81Z"/>
    <path class="cls-9" d="M214.92,401.8c4,4.59,8.55,7.87,14.38,9.05-10.09,.87-14.92-2.1-14.38-9.05Z"/>
    <path class="cls-6" d="M150.04,432.38c-1.31,.14-2.62,.25-3.43-1.13,1.31-.13,2.53,0,3.43,1.13Z"/>
    <path class="cls-4" d="M297.05,358.68c.42-.05,1.1-.27,1.2-.12,.33,.53-.13,.79-.6,.94-.2-.27-.4-.54-.59-.81Z"/>
    <path class="cls-6" d="M51.15,372.15c-4.43-12.85,.75-23.48,5.64-34.01,2.46-5.3,6.22-9.81,10.91-13.47,11.35-8.87,26.02-5.07,31.63,8.29,.83,1.98,1.66,4.08,1.88,6.19,.89,8.82-2.21,15.22-12.19,15.43-6.83,.14-13.12-1.59-19.31-4.26-7.61-3.29-13.74-.34-15.94,7.77-1.17,4.3-1.66,8.79-2.61,14.07Z"/>
    <path class="cls-12" d="M140.24,348.88c-3.43,5.11-5.2,5.12-9.42,1.17-.63,3.85-.25,8.48-5.6,9.28-4.12,.61-6.13-2.08-7.4-5.65,.53-.08,1-.29,1.13-.16,1.7,1.73,3.14,4.29,6.11,3.03,2.86-1.22,2.28-4.18,2.4-6.55,.13-2.47-.17-4.97-.41-7.45-.13-1.37-.43-2.85,1.08-3.48,1.79-.76,2.83,.66,3.48,1.98,.88,1.76,1.82,3.63,2.08,5.54,.52,3.84,1.86,5.65,6.53,2.31Z"/>
    <path class="cls-12" d="M144.05,322.01c.91,3.69,2.83,5.84,6.7,5.43,4.09-.43,5.46-2.64,4.4-6.55-.36-1.35-.4-2.77,1.27-3.26,.92-.27,1.46,.57,1.87,1.31,4.43,7.99,5.9,8.49,13.77,4.68-1.66,3.95-5.88,6-10.66,4.53-2.3-.71-3.72-.61-5.73,.8-2.73,1.9-6.05,1.88-8.99,.08-2.46-1.51-3.8-3.69-2.64-7.02Z"/>
    <path class="cls-12" d="M143.84,396.71c-10.8-7.23-16.23-17.06-14.86-30.11,2.51,11.21,8.02,20.96,14.86,30.11Z"/>
    <path class="cls-12" d="M155.4,337.5c-5.91,6.81-11.88,6.13-14.57-.34-.49-1.19-.45-3-2.22-2.78-1.86,.24-.62,2.27-1.44,3.34-1.69-2.05-2.38-4.33,.13-5.94,2.08-1.34,4.85-.42,5.52,1.71,1.99,6.32,6.02,7.14,12.57,4Z"/>
    <path class="cls-2" d="M263.04,463.72c1.52-.74,3.02-1.51,4.51-2.3"/>
    <path class="cls-2" d="M159.55,480.42c30.39,5.53,77.17-2.97,105-17"/>
    <ellipse class="cls-6" cx="73.55" cy="109.92" rx="23" ry="19.5"/>
    <path class="cls-1" d="M63.55,106.42c.75-1.32,3.17-5.18,8-7,8.24-3.1,15.62,2.69,16,3"/>
    <line class="cls-3" x1="66.64" y1="101.46" x2="61.55" y2="96.42"/>
    <line class="cls-3" x1="74.53" y1="97.92" x2="73.55" y2="90.42"/>
    <line class="cls-3" x1="83.94" y1="99.45" x2="87.55" y2="93.42"/>
  </g>
</svg>