<?xml version="1.0" encoding="UTF-8"?>
<svg id="Calque_2" data-name="Calque 2" xmlns="http://www.w3.org/2000/svg" viewBox="0 0 282.03 227.29">
  <defs>
    <style>
      .cls-1 {
        fill: #262626;
      }

      .cls-2 {
        fill: #dd1e48;
      }
    </style>
  </defs>
  <g id="Calque_1-2" data-name="Calque 1">
    <g>
      <g>
        <path d="M158.3,204.65c6.44,.03,10.19,4.98,10.16,11.42-.03,6.41-3.83,11.25-10.27,11.22l-8.77-.04,.11-22.64,8.77,.04Zm-.1,19.88c4.76,.02,7.24-3.64,7.27-8.47,.02-4.83-2.42-8.62-7.19-8.64l-5.78-.03-.08,17.11,5.78,.03Z"/>
        <path d="M188.3,217.35l-12.27,2.34c.93,2.6,3.13,3.62,5.71,3.13,1.84-.35,3.36-1.51,3.94-3.19l2.61,.51c-.79,2.86-3.24,4.8-6.14,5.35-4.29,.82-8.35-1.72-9.26-6.5s1.95-8.53,6.25-9.35c4.29-.82,8.08,1.67,8.99,6.45,.08,.42,.13,.85,.18,1.27Zm-3.21-1.9c-.85-2.51-2.97-3.65-5.45-3.17-2.55,.49-4.1,2.19-4.03,4.98l9.49-1.81Z"/>
        <path d="M192.74,218l2.51-.89c.47,1.23,1.91,1.87,3.68,1.24,1.83-.65,2.59-1.93,2.18-3.1-.38-1.08-1.42-1.35-2.65-1.19l-2.15,.24c-2.65,.2-4.46-.48-5.28-2.8-.84-2.38,.53-5,3.45-6.03,2.45-.87,5.45-.46,6.48,2.45l-2.6,.92c-.42-1.11-1.83-1.44-2.98-1.04-1.39,.49-2.01,1.72-1.61,2.83,.35,.99,1.47,1.19,2.47,1.08l2.32-.23c3.27-.32,4.68,1.2,5.26,2.85,.95,2.69-1.05,5.32-4.05,6.38-2.6,.92-5.84,.22-7.02-2.71Z"/>
        <path d="M241.61,196.27l-2.37,1.71-11.77-12.77,2.79,16.2-2.11,1.52-14.52-7.77,8.39,15.21-2.37,1.71-10.97-19.99,2.19-1.57,16.36,8.91-3.26-18.33,2.19-1.57,15.48,16.75Z"/>
        <path d="M240.17,186.43c-3.65-3.22-3.62-8.06-.74-11.34,2.89-3.28,7.71-3.93,11.36-.71,3.65,3.22,3.63,8.1,.74,11.38s-7.72,3.88-11.36,.67Zm8.74-9.91c-2.37-2.09-5.58-1.77-7.45,.35-1.85,2.09-1.74,5.3,.63,7.39,2.39,2.11,5.58,1.81,7.43-.28,1.87-2.12,1.78-5.35-.61-7.46Z"/>
        <path d="M253.03,156.74l1.49-2.44,13.09,8-1.49,2.44-2.05-1.25c1.17,1.8,.62,4.34-.27,5.8-2,3.28-5.42,3.96-9.08,1.69l-7.57-4.63,1.49-2.44,7.51,4.59c2.22,1.35,4.42,.89,5.54-.93,1.11-1.82,1.36-4.68-1.46-6.43l-7.2-4.41Z"/>
        <path d="M270.46,156.2l-21.57-9.79,1.18-2.6,21.57,9.79-1.18,2.6Z"/>
        <path d="M254.02,141.33c-1.02-.38-1.47-1.52-1.09-2.54,.39-1.05,1.48-1.63,2.49-1.25,1.02,.37,1.47,1.52,1.08,2.57-.38,1.02-1.47,1.6-2.48,1.22Zm19.9,6.71l-14.39-5.31,.99-2.68,14.39,5.31-.99,2.68Z"/>
        <path d="M271.75,123.24l8.64,2.02-.65,2.78-8.48-1.98c-2.49-.58-4.45,.58-4.94,2.66-.49,2.08,.18,4.87,3.41,5.62l8.09,1.89-.65,2.78-14.94-3.5,.65-2.78,2.27,.53c-1.61-1.32-1.88-3.95-1.49-5.58,.87-3.71,3.91-5.46,8.09-4.45Z"/>
        <path d="M276.68,119.19l.21-2.65c1.31,.07,2.48-.99,2.63-2.86,.15-1.93-.71-3.15-1.95-3.25-1.15-.09-1.81,.75-2.16,1.94l-.65,2.06c-.89,2.5-2.25,3.88-4.7,3.69-2.52-.2-4.35-2.52-4.11-5.59,.2-2.59,1.79-5.17,4.87-4.93l-.21,2.75c-1.18-.06-2.06,1.09-2.16,2.3-.11,1.47,.76,2.53,1.94,2.62,1.05,.08,1.68-.86,1.99-1.82l.73-2.22c1.03-3.12,3-3.79,4.73-3.65,2.85,.22,4.44,3.12,4.19,6.29-.22,2.75-2.17,5.43-5.33,5.32Z"/>
      </g>
      <path class="cls-2" d="M152.73,0C100.2,0,57.52,42.18,56.73,94.53h0c0,.5-.01,.99-.01,1.48,0,4.4,.3,8.73,.87,12.97h0c1.75,12.99,6.1,25.14,12.51,35.94v-62.31c.01-.25,.03-.49,.05-.74,.41-4.34,4.26-7.53,8.59-7.13,4.25,.4,7.4,4.09,7.15,8.31v81.88c17.29,16.77,40.86,27.09,66.84,27.09,53.03,0,96.01-42.99,96.01-96.01S205.76,0,152.73,0Zm-18.77,113.11c4.19,0,7.59,3.4,7.59,7.6s-3.4,7.6-7.59,7.6h-18.42v22.91h24.33c4.19,0,7.6,3.4,7.6,7.6s-3.4,7.59-7.6,7.59h-39.51V75.01h39.51c4.19,0,7.6,3.4,7.6,7.6s-3.4,7.59-7.6,7.59h-24.33v22.91h18.42Zm63.7,31.55c-.53,0-1.41-.08-2.62-.22-.93-.14-4.48-.22-10.66-.22l-2.63-.07c-1.61,3.79-3.17,7.81-4.67,12.04-1.37,3.84-2.48,6.42-3.36,7.73-1.03,1.56-2.17,2.34-3.44,2.34-.73,0-1.33-.22-1.82-.66-.64-.53-.95-1.19-.95-1.97,0-2.04,2.24-8.49,6.71-19.34-4.23,.2-7,.41-8.32,.66s-2.36,.37-3.14,.37c-1.22,0-2.19-.54-2.92-1.61-.39-.58-.58-1.24-.58-1.97,0-2.19,1.27-3.55,3.8-4.09,1.31-.24,5.42-.44,12.33-.58h1.97c2.48-5.55,4.7-10.14,6.64-13.8,1.9-3.6,4.11-5.4,6.64-5.4,1.07,0,1.6,.58,1.6,1.75s-1.09,3.99-3.28,8.61c-.98,2.04-2.37,5.03-4.17,8.98,4.53,.1,7.27,.17,8.25,.22,3.21,0,5.35,.29,6.42,.87,.88,.44,1.31,1.34,1.31,2.7,0,2.43-1.04,3.65-3.14,3.65Z"/>
      <g>
        <path class="cls-1" d="M50.77,112.9c-4.36,0-7.9-3.54-7.9-7.9,0-7.47-6.07-13.54-13.54-13.54s-13.54,6.07-13.54,13.54c0,4.36-3.54,7.9-7.9,7.9S0,109.37,0,105C0,88.83,13.16,75.67,29.33,75.67s29.33,13.16,29.33,29.33c0,4.36-3.54,7.9-7.9,7.9Z"/>
        <path class="cls-1" d="M29.33,166.17C13.16,166.17,0,153.01,0,136.84c0-4.36,3.54-7.9,7.9-7.9s7.9,3.54,7.9,7.9c0,7.47,6.07,13.54,13.54,13.54s13.54-6.07,13.54-13.54c0-4.36,3.54-7.9,7.9-7.9s7.9,3.54,7.9,7.9c0,16.17-13.16,29.33-29.33,29.33Z"/>
        <rect class="cls-1" y="105" width="15.79" height="30.89" transform="translate(15.79 240.9) rotate(180)"/>
        <path class="cls-1" d="M56.56,214c-16.17,0-29.33-13.16-29.33-29.33,0-4.36,3.54-7.9,7.9-7.9s7.9,3.54,7.9,7.9c0,7.47,6.07,13.54,13.54,13.54s13.54-6.07,13.54-13.54c0-4.36,3.54-7.9,7.9-7.9s7.9,3.54,7.9,7.9c0,16.17-13.16,29.33-29.33,29.33Z"/>
        <path class="cls-1" d="M70.1,82.64v1.27c-.01-.16-.02-.34-.02-.51,0-.25,0-.51,.02-.76Z"/>
        <path class="cls-1" d="M70.1,144.92c4.36,7.36,9.68,14.09,15.8,20.01v19.74h-15.8v-39.75Z"/>
      </g>
    </g>
  </g>
</svg>