<?xml version="1.0" encoding="UTF-8"?>
<svg id="Calque_2" data-name="Calque 2" xmlns="http://www.w3.org/2000/svg" viewBox="0 0 73.14 75.67">
  <defs>
    <style>
      .cls-1 {
        fill: #fff;
      }

      .cls-2 {
        fill: #ffbe08;
      }
    </style>
  </defs>
  <g id="Calque_1-2" data-name="Calque 1">
    <g>
      <circle class="cls-2" cx="29.62" cy="29.62" r="29.62"/>
      <polygon class="cls-1" points="54.7 32.25 49.52 39.73 48.87 46.34 45.17 48.84 42.76 55.8 39.92 57.99 37.35 62.96 36.76 70.56 33.35 75.41 36.53 75.25 45.55 70.47 54.15 48.84 58.55 36.7 54.7 32.25"/>
      <path d="M58.31,30.86c-.81-1.64-1.75-3.19-2.81-4.63-.41,1.09-.87,2.15-1.46,3.17,0,.13-.04,.26-.12,.42-.42,.82-.8,1.66-1.12,2.53-.16,.44-.4,.76-.83,.88-.77,.22-1.14,.71-1.17,1.5-.01,.32-.17,.63-.2,.95-.1,1.14-.61,2.07-1.37,2.89-.14,.15-.21,.38-.24,.59-.17,1.03-.32,2.06-.46,3.09-.09,.64-.35,1.16-.84,1.59-.26,.23-.48,.51-.64,.68,0-.05,0-.09,.01-.14-.01,.01-.02,.02-.03,.04-.57,.91-1.51,1.63-2.23,2.49-.06,.07-.12,.14-.17,.21-.17,.48-.36,.94-.56,1.36,0,0-.02,0-.03-.01-.23,2.61-2.31,5-4.14,7.04-.02,1.46-.51,2.78-1.27,3.98-.01,.03-.02,.05-.03,.08-.19,.43-.48,.79-.74,1.16,0,0,.02-.01,.02-.01-.07,.08-.13,.16-.19,.25-.09,.14-.18,.28-.25,.42-.05,.09-.1,.18-.16,.26-.66,1.29-.87,2.78-1.52,4.11,.01,.19-.01,.39-.08,.61-1.04,3.05-1.07,6.58-2.74,9.32,.15-.06,.3-.15,.41-.26,1.03-.98,2.05-1.96,3.04-2.97,.92-.94,1.86-1.84,3.06-2.44,.96-.48,1.87-1.06,2.8-1.58,.12-.07,.25-.15,.37-.15,.69,0,1.38,0,2.16,.01-.17,.13-.26,.2-.41,.32,.43,0,.78,0,1.17,0-.06,.07-.08,.13-.12,.14-.88,.2-1.75,.53-2.63,.56-1.29,.05-2.17,.73-3.01,1.59,.85-.06,1.71-.13,2.56-.19,.02,.05,.04,.09,.06,.14-2.38,.89-4.09,2.67-5.91,4.3,.01,.04,.03,.09,.04,.13,1.1-.3,2.22-.55,3.31-.9,7.69-2.47,13.7-7.12,17.61-14.21,5.27-9.57,5.69-19.45,.86-29.28Zm-16.21,28.04c-1.22,2.62-1.54,5.46-2.07,8.25-.02,.13-.05,.25-.07,.38-.04,0-.07-.01-.11-.02-.13-1.4-.25-2.8-.38-4.2-.05,0-.1-.02-.16-.02-.32,2.32-.93,4.53-2.19,6.57,.21-1.6,.46-3.17,.63-4.75,.16-1.53,.6-2.89,1.84-3.9,1.17-.95,1.5-2.36,1.95-3.7,.15-.45,.36-.71,.84-.79,1.31-.23,2.61-.5,3.97-.65-.19,.12-.37,.25-.56,.36-1.12,.65-2.25,1.28-3.36,1.94-.16,.1-.26,.33-.35,.53Zm6.4-.58c-1.26,.88-2.52,1.75-3.77,2.64-.2,.14-.35,.36-.47,.58-.3,.57-.57,1.15-.85,1.73-.04,0-.08-.02-.12-.03,.2-1.11,.37-2.23,.64-3.32,.07-.29,.42-.63,.72-.73,1.34-.43,2.71-.78,4.22-1.2-.2,.17-.28,.25-.37,.32Zm.41-6.84c.33,.07,.67,.09,1.09,.14-.51,1.44-1.26,2.71-2.23,3.88,.29-.97,.57-1.94,.88-2.97-.63,.34-1.23,.67-1.97,1.07,.25-.72,.46-1.31,.71-2.01-1.19,.65-1.58,1.78-2.09,2.77-.41-.28-.82-.54-1.24-.83,0-.02,0-.08,.01-.12,.86-1.51,1.72-3.03,2.59-4.53,.08-.14,.22-.29,.36-.33,1.08-.26,2.16-.49,3.28-.74-.52,.52-1.02,.98-1.47,1.48-.26,.29-.49,.62-.62,.98-.24,.65,0,1.05,.69,1.2Zm2.97-5.81c.3-1.44,.18-2.99,1.11-4.27,.35-.48,.63-1.01,.9-1.55,.08-.15,0-.39-.02-.59-.2,.03-.48-.01-.58,.1-.78,.88-1.52,1.79-2.26,2.69-.26,.31-.47,.67-.75,.96-.14,.15-.4,.18-.6,.26-.05-.04-.1-.08-.15-.12,.13-.62,.23-1.25,.41-1.86,.11-.39,.31-.76,.54-1.09,.83-1.21,1.46-2.51,1.81-3.92,.19-.81,.6-1.25,1.5-1.21-.09,.34-.19,.69-.29,1.04-.07,.25-.18,.5-.18,.74,0,.35,.04,.71,.13,1.05,.16,.55,.61,.2,.91,.22,.43,.04,.88-.03,1.5-.07-1.37,2.62-2.68,5.11-3.99,7.6Z"/>
      <polygon points="62.61 6.7 51.66 34.1 59.78 34.1 51.66 51.33 59.78 51.63 51.66 74.82 73.14 42.81 62.4 42.81 70.61 27.7 60.5 27.7 62.61 6.7"/>
      <g>
        <path d="M24.78,44.45c.42,.77,.94,1.49,1.41,2.18,.31,.42,.56,.9,.87,1.36,.11,.09,.21,.2,.3,.32,.53,.39,1.02,.85,1.45,1.22,1.05,.89,2.03,1.86,3.09,2.74,.18,.11,.37,.22,.55,.33,.11,.02,.23,.06,.33,.12,1.51,.86,3.45,1.37,4.7,2.62,.07,.07,.13,.14,.19,.22,.69,.63,1.37,1.29,2.2,1.72,.31-.09,.63-.15,.97-.21,.16-.03,.31-.02,.46,.02,.26-.07,.52-.13,.78-.18,.1-.02,.2-.04,.3-.06-.05,.01-.02,0,.05-.02,.09-.08,.2-.15,.33-.2-.14-.07-.29-.15-.44-.21,.15,0,.31,.01,.49,.02-.01-.22-.03-.4-.04-.64,.14,.18,.25,.32,.38,.49,.1-.79-.29-1.48-1.12-1.83-.63-.26-1.3-.42-1.95-.62-.83-.24-.92-.4-.51-1.13,1.4-2.49,2.27-5.19,3.09-7.9,.35-1.15-.23-2.23-1.35-2.6-.39-.13-.8-.2-1.18-.34-.19-.07-.44-.19-.52-.35-.31-.63-.83-.97-1.46-1.21-1.78-.66-3.56-1.31-5.33-1.97-.09-.03-.15-.12-.16-.14,0,0,0,0,0,0,.24-.2,.44-.32,.55-.48,.2-.3,.36-.63,.55-.97,.32,.23,.54,.4,.83,.61,.26-.65,.49-1.24,.75-1.89,.18,.17,.29,.28,.42,.41,.14-.31,.24-.61,.4-.87,.2-.32,.45-.63,.71-.91,.07-.07,.36-.06,.41,.01,.6,.76,1.26,1.49,1.19,2.58-.02,.34,.05,.68,.09,1.07l.64-.25c.07,.42,.13,.81,.19,1.22,.16-.08,.3-.14,.51-.24,.2,.7,.71,1.05,1.35,1.26,.13,.04,.24,.18,.35,.29,.18,.17,.35,.35,.54,.54,.07-.11,.11-.18,.13-.22,.23,.17,.44,.35,.67,.48,.14,.08,.35,.05,.49,.14,.99,.66,1.98,1.34,2.96,2.02,.65,.45,1.37,.59,2.15,.45,.57-.1,1.14-.23,1.71-.31,.25-.04,.5-.03,.76-.03,.2-.15,.43-.25,.68-.29,.14-.14,.31-.26,.49-.35,.35-.17,.39-.85,.16-1.33-1.08,.11-3.17,.24-3.9,.33-.51,.06-.93-.1-1.28-.5-1.28-1.44-2.55-2.89-3.86-4.3-.68-.73-1.01-1.57-1.23-2.53-.42-1.87-.59-3.83-1.74-5.47-.18-.26-.09-.53,.19-.63,.31-.11,.66-.2,.98-.18,.73,.05,1.45,.21,2.18,.25,1.17,.08,2.14-.77,2.09-1.77-.09,0-.18,0-.22,0,.04-.2,.07-.38,.13-.68-.72,.22-1.32,.4-1.96,.6,.02-.14,.03-.23,.05-.31,.17-.77,.12-.88-.58-1.27-.16-.09-.38-.16-.47-.3-.18-.28-.42-.63-.39-.92,.03-.26,.35-.58,.62-.7,.39-.18,.85-.22,1.29-.31,.51-.11,.69-.34,.5-.83-.12-.32-.33-.63-.57-.87-1.35-1.36-2.89-2.14-4.88-1.59-.72,.2-1.33,.5-1.7,1.18-.19,.35-.32,.77-.59,1.05-.47,.49-.49,1.06-.45,1.66,0,.1,.01,.24-.04,.28-.48,.36-.82,.89-1.5,1.01-.82,.15-1.7,.29-2.39,.7-1.57,.92-3.07,1.97-4.54,3.04-.52,.38-.98,.91-1.31,1.46-1.74,2.96-2.44,6.29-3.19,9.58-.15,.66,.04,1.41,.14,2.11,.07,.48,.24,.95,.39,1.41,.2,.61,.35,1.26,.66,1.82Zm25.42-2.28l1.91-.28c-.04,.09-.06,.04-.1,.13l-1.81,.15Zm-12.16-18.19c-.1-.67,.12-1.37,.57-1.51,.27-.09,.64-.05,.91,.06,.18,.08,.27,.38,.4,.59-.16,.06-.22,.05-.24,.02-.2-.32-.43-.51-.84-.35-.43,.16-.46,.52-.46,.88,0,.72,.27,1.25,1.12,1.35-.02,.06-.04,.12-.07,.19-.14,0-.28,.04-.41,.02-.52-.08-.86-.53-.97-1.24Zm-3.89,24.91c.69-.4,1.4-.77,2.1-1.16,.34-.19,.67-.41,1.11-.68-.22,1.8-.43,3.46-.64,5.09-.34-.4-.61-.81-.97-1.12-.51-.44-1.08-.82-1.64-1.22-.52-.36-.52-.58,.04-.91Zm-7.52-5.05c.78,.75,1.7,1.17,2.73,1.3,.72,.09,1.46,.1,2.19,.12,.57,.02,1.14,0,1.71,0-.81,1.22-1.58,2.4-2.36,3.57-1.91-1.34-4.17-3.63-4.27-4.99Z"/>
        <path d="M44.3,23.18c-.36,.05-.63,.04-.84,.13-.18,.08-.36,.28-.44,.46-.03,.08,.18,.38,.28,.38,.24,0,.54-.06,.71-.21,.15-.13,.17-.42,.29-.76Z"/>
        <path d="M44.68,23.96c.14-.3,.27-.59,.41-.89-.02-.03-.04-.07-.06-.1-.19,.14-.44,.24-.56,.42-.08,.13,.01,.36,.03,.55l.18,.02Z"/>
        <path d="M44.81,24.64c.17,.16,.34,.32,.51,.47l.22-.13c-.04-.15-.08-.29-.16-.4-.08-.11-.3-.1-.48-.13-.03,0-.06,0-.08,.04l-.03,.07s0,.06,.02,.08Z"/>
      </g>
    </g>
  </g>
</svg>